<svg width="56" height="32" viewBox="0 0 56 32" fill="none" xmlns="http://www.w3.org/2000/svg" id="Money">
<path d="M26.7951 21.2246C26.7951 25.6557 20.8141 29.2663 13.3976 29.2663C5.98105 29.2663 -2.30067e-07 25.6557 -5.12423e-07 21.2246C-7.94778e-07 16.7934 5.98105 13.1828 13.3976 13.1828C20.8141 13.1828 26.7951 16.7934 26.7951 21.2246Z" fill="white"/>
<path d="M13.3976 29.2663C6.55523 29.2663 0.90912 26.1809 0.0956963 22.2093C0.0478479 22.5375 -5.33338e-07 22.8658 -5.12423e-07 23.194C-2.30067e-07 27.6251 5.98105 31.2357 13.3976 31.2357C20.8141 31.2357 26.7951 27.6251 26.7951 23.194C26.7951 22.8658 26.7473 22.5375 26.6994 22.2093C25.886 26.1809 20.2399 29.2663 13.3976 29.2663Z" fill="#FFBFCD"/>
<path d="M24.1635 21.1918C24.1635 21.4544 24.1635 21.6841 24.1157 21.9139C24.0678 22.078 23.8286 22.2093 23.5893 22.2093C23.3501 22.1765 23.1587 22.0124 23.1587 21.8483C23.2065 21.6513 23.2065 21.4544 23.2065 21.2246C23.2065 21.0277 23.3979 20.8964 23.685 20.8964C23.9721 20.8964 24.1635 21.0277 24.1635 21.1918ZM23.6372 19.288C23.6372 19.4193 23.5415 19.5506 23.3501 19.5835C23.1108 19.6491 22.8237 19.5506 22.728 19.3865C22.6324 19.1896 22.4888 18.9926 22.3453 18.8285C22.2017 18.6644 22.2974 18.4675 22.5367 18.4018C22.7759 18.3033 23.063 18.369 23.1587 18.5331C23.3022 18.73 23.4458 18.9598 23.5415 19.1567C23.6372 19.2224 23.6372 19.2552 23.6372 19.288ZM23.3022 23.7192C23.3022 23.7848 23.3022 23.8177 23.2544 23.8833C23.1108 24.0803 22.9194 24.2772 22.7759 24.4741C22.6324 24.6383 22.3453 24.6711 22.106 24.5726C21.8668 24.4741 21.8189 24.2772 21.9625 24.1131C22.106 23.949 22.2974 23.752 22.3931 23.5879C22.5367 23.4238 22.8237 23.3581 23.0151 23.4566C23.2065 23.4894 23.3022 23.6207 23.3022 23.7192ZM21.5797 17.1217C21.5797 17.2202 21.5318 17.2858 21.4361 17.3515C21.2447 17.4828 20.9577 17.4828 20.7663 17.3515C20.5749 17.2202 20.3356 17.0561 20.0964 16.9248C19.905 16.8263 19.8571 16.5965 20.0485 16.4652C20.2399 16.3339 20.527 16.3011 20.7184 16.4324C20.9577 16.5637 21.2447 16.7278 21.4361 16.8919C21.5318 16.9576 21.5797 17.0561 21.5797 17.1217ZM20.9098 25.7214C20.9098 25.8199 20.862 25.9184 20.7184 25.984C20.4792 26.1153 20.1921 26.2794 19.905 26.3779C19.6658 26.4764 19.3787 26.4435 19.2351 26.2794C19.0916 26.1153 19.1394 25.9184 19.3787 25.8199C19.6179 25.6886 19.8571 25.5901 20.0964 25.4588C20.2878 25.3275 20.6227 25.3604 20.7663 25.4917C20.862 25.5901 20.9098 25.6558 20.9098 25.7214ZM18.4695 15.6775C18.4695 15.7103 18.4695 15.7759 18.4217 15.8088C18.326 15.9729 18.0389 16.0385 17.7997 15.9729C17.5126 15.8744 17.2255 15.8088 16.9384 15.7431C16.6991 15.6775 16.5556 15.5134 16.6513 15.3164C16.747 15.1523 16.9862 15.0538 17.2733 15.1195C17.6083 15.1851 17.8954 15.2836 18.1824 15.3492C18.3738 15.4477 18.4695 15.5462 18.4695 15.6775ZM17.6083 27.0015C17.6083 27.1328 17.4647 27.2641 17.2733 27.2969C16.9862 27.3626 16.6513 27.4282 16.3164 27.4939C16.0771 27.5267 15.79 27.4282 15.7422 27.2641C15.6943 27.1 15.8379 26.9031 16.0771 26.8702C16.3642 26.8046 16.6513 26.7718 16.9384 26.7061C17.1776 26.6405 17.4647 26.7389 17.5604 26.9031C17.6083 26.9031 17.6083 26.9359 17.6083 27.0015ZM14.7852 15.0538C14.7852 15.0867 14.7852 15.0867 14.7852 15.0538C14.7852 15.2508 14.546 15.3821 14.2589 15.3821C13.9718 15.3821 13.6847 15.3492 13.3976 15.3492C13.1105 15.3492 12.9191 15.2179 12.9191 15.021C12.9191 14.8241 13.1105 14.6928 13.3976 14.6928C13.7325 14.6928 14.0196 14.6928 14.3546 14.7256C14.5938 14.7584 14.7852 14.8897 14.7852 15.0538ZM13.8761 27.3954C13.8761 27.5924 13.6847 27.7236 13.3976 27.7236C13.0627 27.7236 12.7277 27.7236 12.4406 27.6908C12.2014 27.6908 11.9622 27.5267 12.01 27.3298C12.01 27.1328 12.2492 27.0015 12.5363 27.0344C12.8234 27.0344 13.1584 27.0672 13.4455 27.0672C13.6847 27.0672 13.8761 27.2313 13.8761 27.3954ZM11.0052 15.2836C11.0052 15.4149 10.8616 15.579 10.6224 15.6118C10.3353 15.6775 10.0482 15.7103 9.76113 15.7759C9.52189 15.8416 9.23479 15.7431 9.1391 15.579C9.0434 15.4149 9.18695 15.2179 9.42619 15.1523C9.71328 15.0867 10.0482 15.021 10.3832 14.9554C10.6224 14.9225 10.9095 15.021 10.9573 15.1851C11.0052 15.2179 11.0052 15.2508 11.0052 15.2836ZM10.1439 27.0015C10.1439 27.0344 10.1439 27.0672 10.0961 27.1C10.0004 27.2641 9.76113 27.3626 9.47404 27.2969C9.18695 27.2313 8.85201 27.1328 8.56492 27.0672C8.32568 27.0015 8.22998 26.8046 8.32568 26.6405C8.42137 26.4764 8.70846 26.4107 8.94771 26.4764C9.2348 26.5748 9.52189 26.6405 9.80898 26.7061C10.0482 26.7389 10.1439 26.8702 10.1439 27.0015ZM7.5601 16.3339C7.5601 16.4324 7.4644 16.5309 7.36871 16.5965C7.12946 16.7278 6.89022 16.8263 6.65098 16.9576C6.45959 17.0889 6.12465 17.0561 5.9811 16.9248C5.78971 16.7935 5.83756 16.5637 6.02895 16.4652C6.26819 16.3339 6.55528 16.1698 6.84237 16.0714C7.08162 15.9729 7.36871 16.0057 7.51225 16.1698C7.5601 16.2026 7.5601 16.2683 7.5601 16.3339ZM6.84237 25.7542C6.84237 25.8199 6.79453 25.8855 6.74668 25.9512C6.60313 26.0825 6.26819 26.1153 6.0768 25.984C5.83756 25.8527 5.55047 25.6886 5.35907 25.5245C5.16768 25.3932 5.16768 25.1962 5.35907 25.065C5.55047 24.9337 5.83756 24.9337 6.02895 25.065C6.22035 25.1962 6.45959 25.3604 6.69883 25.4917C6.79453 25.5573 6.84237 25.6558 6.84237 25.7542ZM4.92844 18.172C4.92844 18.2377 4.88059 18.3033 4.83274 18.3362C4.6892 18.5003 4.4978 18.6972 4.4021 18.8613C4.30641 19.0255 3.97147 19.0911 3.78008 18.9926C3.54083 18.927 3.44514 18.73 3.58868 18.5659C3.73223 18.369 3.92362 18.172 4.06717 17.9751C4.21071 17.811 4.4978 17.7782 4.73704 17.8766C4.83274 17.9423 4.92844 18.0736 4.92844 18.172ZM4.44995 23.752C4.44995 23.8833 4.35426 23.9818 4.21071 24.0474C3.97147 24.1459 3.68438 24.0803 3.58868 23.9161C3.44514 23.7192 3.30159 23.4894 3.20589 23.2925C3.1102 23.1284 3.25374 22.9314 3.49299 22.8658C3.73223 22.8001 4.01932 22.8986 4.11501 23.0627C4.21071 23.2597 4.35426 23.4566 4.4978 23.6207C4.44995 23.6536 4.44995 23.6864 4.44995 23.752ZM3.63653 20.601L3.63653 20.6338C3.58868 20.8307 3.58868 21.0277 3.58868 21.2246C3.58868 21.4216 3.39729 21.5529 3.1102 21.5529C2.82311 21.5529 2.63171 21.4216 2.63171 21.2246C2.63171 20.9949 2.63171 20.7651 2.67956 20.5682C2.72741 20.404 2.96665 20.2727 3.20589 20.2727C3.44514 20.2727 3.63653 20.4369 3.63653 20.601Z" fill="#FFBFCD"/>
<path d="M13.8761 29.2663L13.8761 31.2357C14.211 31.2357 14.4981 31.2029 14.8331 31.2029L14.8331 29.2335C14.4981 29.2335 14.211 29.2663 13.8761 29.2663Z" fill="#F48BA2"/>
<path d="M11.4836 29.2007L11.4836 31.1701C11.8186 31.2029 12.1057 31.2029 12.4406 31.2357L12.4406 29.2663C12.1057 29.2335 11.8186 29.2335 11.4836 29.2007Z" fill="#F48BA2"/>
<path d="M16.2686 29.1023L16.2686 31.0717C16.6035 31.0388 16.8906 30.9732 17.2255 30.9075L17.2255 28.9381C16.8906 29.0038 16.6035 29.0366 16.2686 29.1023Z" fill="#F48BA2"/>
<path d="M18.6609 28.6426L18.6609 30.612C18.9958 30.5136 19.2829 30.4479 19.6179 30.3495L19.6179 28.3801C19.2829 28.4457 18.9958 28.5442 18.6609 28.6426Z" fill="#F48BA2"/>
<path d="M9.09131 28.8396L9.09131 30.809C9.42625 30.8747 9.71334 30.9403 10.0483 30.9731L10.0483 29.0037C9.71334 28.9709 9.42625 28.9053 9.09131 28.8396Z" fill="#F48BA2"/>
<path d="M6.69885 28.1832L6.69885 30.1526C7.03379 30.251 7.32088 30.3495 7.65582 30.448L7.65582 28.4786C7.32088 28.4129 7.03379 28.3145 6.69885 28.1832Z" fill="#F48BA2"/>
<path d="M3.82788 26.8701L3.82788 28.8395C4.11497 29.0365 4.44991 29.2006 4.78485 29.3647L4.78485 27.3953C4.44991 27.2312 4.11497 27.0342 3.82788 26.8701Z" fill="#F48BA2"/>
<path d="M1.43555 24.8351L1.43555 26.8045C1.72264 27.1327 2.05758 27.4609 2.39252 27.7563L2.39252 25.7869C2.05758 25.4915 1.72264 25.1961 1.43555 24.8351Z" fill="#F48BA2"/>
<path d="M21.5319 27.6251L21.5319 29.5945C21.8668 29.4304 22.2017 29.2663 22.4888 29.1022L22.4888 27.1328C22.2017 27.2969 21.8668 27.461 21.5319 27.6251Z" fill="#F48BA2"/>
<path d="M23.9243 28.1831C24.2593 27.9205 24.5942 27.6579 24.8813 27.3625L24.8813 25.3931C24.5942 25.6885 24.2593 25.9511 23.9243 26.2137L23.9243 28.1831Z" fill="#F48BA2"/>
<path d="M15.8763 20.733L15.8763 22.0232L17.2255 22.0232L17.2255 23.0329L15.8763 23.0329L15.8763 23.8543L14.6906 23.8543L14.6906 23.0329L14.0656 23.0329L14.0656 23.8543L12.8799 23.8543L12.8799 23.0329L8.72119 23.0329L8.72119 20.8011C8.72119 20.1574 8.96651 19.6432 9.45714 19.2585C9.94388 18.8739 10.5922 18.6815 11.4022 18.6815C12.2277 18.6815 12.876 18.8645 13.3472 19.2305C13.8144 19.5964 14.0539 20.1053 14.0656 20.757L14.0656 22.0232L14.6906 22.0232L14.6906 20.733L15.8763 20.733ZM12.8799 22.0232L12.8799 20.8171C12.8799 20.4539 12.7572 20.1761 12.5119 19.9837C12.2666 19.7914 11.9006 19.6952 11.4138 19.6952C10.9777 19.6952 10.6214 19.7901 10.345 19.9797C10.0685 20.1667 9.92441 20.4258 9.91273 20.757L9.91273 22.0232L12.8799 22.0232Z" fill="#F48BA2"/>
<path d="M26.7951 19.1031C26.7951 23.5343 20.8141 27.1448 13.3976 27.1448C5.98105 27.1448 -2.30067e-07 23.5343 -5.12423e-07 19.1031C-7.94778e-07 14.672 5.98105 11.0614 13.3976 11.0614C20.8141 11.0614 26.7951 14.672 26.7951 19.1031Z" fill="white"/>
<path d="M13.3976 27.1448C6.55523 27.1448 0.90912 24.0594 0.0956963 20.0878C0.0478479 20.416 -5.33338e-07 20.7442 -5.12423e-07 21.0725C-2.30067e-07 25.5036 5.98105 29.1142 13.3976 29.1142C20.8141 29.1142 26.7951 25.5036 26.7951 21.0725C26.7951 20.7442 26.7473 20.416 26.6994 20.0878C25.886 24.0594 20.2399 27.1448 13.3976 27.1448Z" fill="#FFBFCD"/>
<path d="M24.1635 19.0703C24.1635 19.3329 24.1635 19.5627 24.1157 19.7924C24.0678 19.9566 23.8286 20.0878 23.5893 20.0878C23.3501 20.055 23.1587 19.8909 23.1587 19.7268C23.2065 19.5298 23.2065 19.3329 23.2065 19.1031C23.2065 18.9062 23.3979 18.7749 23.685 18.7749C23.9721 18.7749 24.1635 18.9062 24.1635 19.0703ZM23.6372 17.1666C23.6372 17.2979 23.5415 17.4292 23.3501 17.462C23.1108 17.5276 22.8237 17.4292 22.728 17.265C22.6324 17.0681 22.4888 16.8712 22.3453 16.707C22.2017 16.5429 22.2974 16.346 22.5367 16.2803C22.7759 16.1819 23.063 16.2475 23.1587 16.4116C23.3022 16.6086 23.4458 16.8383 23.5415 17.0353C23.6372 17.1009 23.6372 17.1337 23.6372 17.1666ZM23.3022 21.5977C23.3022 21.6634 23.3022 21.6962 23.2544 21.7618C23.1108 21.9588 22.9194 22.1557 22.7759 22.3527C22.6324 22.5168 22.3453 22.5496 22.106 22.4511C21.8668 22.3527 21.8189 22.1557 21.9625 21.9916C22.106 21.8275 22.2974 21.6305 22.3931 21.4664C22.5367 21.3023 22.8237 21.2367 23.0151 21.3351C23.2065 21.368 23.3022 21.4993 23.3022 21.5977ZM21.5797 15.0002C21.5797 15.0987 21.5318 15.1643 21.4361 15.23C21.2447 15.3613 20.9577 15.3613 20.7663 15.23C20.5749 15.0987 20.3356 14.9346 20.0964 14.8033C19.905 14.7048 19.8571 14.4751 20.0485 14.3438C20.2399 14.2125 20.527 14.1796 20.7184 14.3109C20.9577 14.4422 21.2447 14.6063 21.4361 14.7705C21.5318 14.8361 21.5797 14.9346 21.5797 15.0002ZM20.9098 23.5999C20.9098 23.6984 20.862 23.7969 20.7184 23.8625C20.4792 23.9938 20.1921 24.1579 19.905 24.2564C19.6658 24.3549 19.3787 24.3221 19.2351 24.1579C19.0916 23.9938 19.1394 23.7969 19.3787 23.6984C19.6179 23.5671 19.8571 23.4687 20.0964 23.3374C20.2878 23.2061 20.6227 23.2389 20.7663 23.3702C20.862 23.4687 20.9098 23.5343 20.9098 23.5999ZM18.4695 13.556C18.4695 13.5888 18.4695 13.6545 18.4217 13.6873C18.326 13.8514 18.0389 13.9171 17.7997 13.8514C17.5126 13.7529 17.2255 13.6873 16.9384 13.6216C16.6991 13.556 16.5556 13.3919 16.6513 13.1949C16.747 13.0308 16.9862 12.9324 17.2733 12.998C17.6083 13.0636 17.8954 13.1621 18.1824 13.2278C18.3738 13.3262 18.4695 13.4247 18.4695 13.556ZM17.6083 24.8801C17.6083 25.0114 17.4647 25.1426 17.2733 25.1755C16.9862 25.2411 16.6513 25.3068 16.3164 25.3724C16.0771 25.4052 15.79 25.3068 15.7422 25.1426C15.6943 24.9785 15.8379 24.7816 16.0771 24.7488C16.3642 24.6831 16.6513 24.6503 16.9384 24.5846C17.1776 24.519 17.4647 24.6175 17.5604 24.7816C17.6083 24.7816 17.6083 24.8144 17.6083 24.8801ZM14.7852 12.9324C14.7852 12.9652 14.7852 12.9652 14.7852 12.9324C14.7852 13.1293 14.546 13.2606 14.2589 13.2606C13.9718 13.2606 13.6847 13.2278 13.3976 13.2278C13.1105 13.2278 12.9191 13.0965 12.9191 12.8995C12.9191 12.7026 13.1105 12.5713 13.3976 12.5713C13.7325 12.5713 14.0196 12.5713 14.3546 12.6041C14.5938 12.6369 14.7852 12.7682 14.7852 12.9324ZM13.8761 25.2739C13.8761 25.4709 13.6847 25.6022 13.3976 25.6022C13.0627 25.6022 12.7277 25.6022 12.4406 25.5693C12.2014 25.5693 11.9622 25.4052 12.01 25.2083C12.01 25.0114 12.2492 24.8801 12.5363 24.9129C12.8234 24.9129 13.1584 24.9457 13.4455 24.9457C13.6847 24.9457 13.8761 25.1098 13.8761 25.2739ZM11.0052 13.1621C11.0052 13.2934 10.8616 13.4575 10.6224 13.4904C10.3353 13.556 10.0482 13.5888 9.76113 13.6545C9.52189 13.7201 9.23479 13.6216 9.1391 13.4575C9.0434 13.2934 9.18695 13.0965 9.42619 13.0308C9.71328 12.9652 10.0482 12.8995 10.3832 12.8339C10.6224 12.8011 10.9095 12.8995 10.9573 13.0636C11.0052 13.0965 11.0052 13.1293 11.0052 13.1621ZM10.1439 24.8801C10.1439 24.9129 10.1439 24.9457 10.0961 24.9785C10.0004 25.1426 9.76113 25.2411 9.47404 25.1755C9.18695 25.1098 8.85201 25.0114 8.56492 24.9457C8.32568 24.8801 8.22998 24.6831 8.32568 24.519C8.42137 24.3549 8.70846 24.2892 8.94771 24.3549C9.2348 24.4534 9.52189 24.519 9.80898 24.5846C10.0482 24.6175 10.1439 24.7488 10.1439 24.8801ZM7.5601 14.2125C7.5601 14.3109 7.4644 14.4094 7.36871 14.4751C7.12946 14.6063 6.89022 14.7048 6.65098 14.8361C6.45959 14.9674 6.12465 14.9346 5.9811 14.8033C5.78971 14.672 5.83756 14.4422 6.02895 14.3438C6.26819 14.2125 6.55528 14.0483 6.84237 13.9499C7.08162 13.8514 7.36871 13.8842 7.51225 14.0483C7.5601 14.0812 7.5601 14.1468 7.5601 14.2125ZM6.84237 23.6328C6.84237 23.6984 6.79453 23.7641 6.74668 23.8297C6.60313 23.961 6.26819 23.9938 6.0768 23.8625C5.83756 23.7312 5.55047 23.5671 5.35907 23.403C5.16768 23.2717 5.16768 23.0748 5.35907 22.9435C5.55047 22.8122 5.83756 22.8122 6.02895 22.9435C6.22035 23.0748 6.45959 23.2389 6.69883 23.3702C6.79453 23.4358 6.84237 23.5343 6.84237 23.6328ZM4.92844 16.0506C4.92844 16.1162 4.88059 16.1819 4.83274 16.2147C4.6892 16.3788 4.4978 16.5757 4.4021 16.7399C4.30641 16.904 3.97147 16.9696 3.78008 16.8712C3.54083 16.8055 3.44514 16.6086 3.58868 16.4445C3.73223 16.2475 3.92362 16.0506 4.06717 15.8536C4.21071 15.6895 4.4978 15.6567 4.73704 15.7552C4.83274 15.8208 4.92844 15.9521 4.92844 16.0506ZM4.44995 21.6305C4.44995 21.7618 4.35426 21.8603 4.21071 21.926C3.97147 22.0244 3.68438 21.9588 3.58868 21.7947C3.44514 21.5977 3.30159 21.368 3.20589 21.171C3.1102 21.0069 3.25374 20.81 3.49299 20.7443C3.73223 20.6787 4.01932 20.7771 4.11501 20.9413C4.21071 21.1382 4.35426 21.3351 4.4978 21.4993C4.44995 21.5321 4.44995 21.5649 4.44995 21.6305ZM3.63653 18.4795L3.63653 18.5123C3.58868 18.7093 3.58868 18.9062 3.58868 19.1031C3.58868 19.3001 3.39729 19.4314 3.1102 19.4314C2.82311 19.4314 2.63171 19.3001 2.63171 19.1031C2.63171 18.8734 2.63171 18.6436 2.67956 18.4467C2.72741 18.2826 2.96665 18.1513 3.20589 18.1513C3.44514 18.1513 3.63653 18.3154 3.63653 18.4795Z" fill="#FFBFCD"/>
<path d="M13.8761 27.1449L13.8761 29.1143C14.211 29.1143 14.4981 29.0814 14.8331 29.0814L14.8331 27.112C14.4981 27.112 14.211 27.1449 13.8761 27.1449Z" fill="#F48BA2"/>
<path d="M11.4836 27.0792L11.4836 29.0486C11.8186 29.0814 12.1057 29.0814 12.4406 29.1143L12.4406 27.1449C12.1057 27.112 11.8186 27.112 11.4836 27.0792Z" fill="#F48BA2"/>
<path d="M16.2686 26.9808L16.2686 28.9502C16.6035 28.9174 16.8906 28.8517 17.2255 28.7861L17.2255 26.8167C16.8906 26.8823 16.6035 26.9151 16.2686 26.9808Z" fill="#F48BA2"/>
<path d="M18.6609 26.5213L18.6609 28.4907C18.9958 28.3922 19.2829 28.3266 19.6179 28.2281L19.6179 26.2587C19.2829 26.3243 18.9958 26.4228 18.6609 26.5213Z" fill="#F48BA2"/>
<path d="M9.09131 26.7183L9.09131 28.6877C9.42625 28.7533 9.71334 28.819 10.0483 28.8518L10.0483 26.8824C9.71334 26.8496 9.42625 26.7839 9.09131 26.7183Z" fill="#F48BA2"/>
<path d="M6.69885 26.0617L6.69885 28.0311C7.03379 28.1296 7.32088 28.228 7.65582 28.3265L7.65582 26.3571C7.32088 26.2915 7.03379 26.193 6.69885 26.0617Z" fill="#F48BA2"/>
<path d="M3.82788 24.7488L3.82788 26.7182C4.11497 26.9151 4.44991 27.0792 4.78485 27.2433L4.78485 25.2739C4.44991 25.1098 4.11497 24.9129 3.82788 24.7488Z" fill="#F48BA2"/>
<path d="M1.43555 22.7137L1.43555 24.6831C1.72264 25.0114 2.05758 25.3396 2.39252 25.635L2.39252 23.6656C2.05758 23.3702 1.72264 23.0748 1.43555 22.7137Z" fill="#F48BA2"/>
<path d="M21.5319 25.5038L21.5319 27.4732C21.8668 27.3091 22.2017 27.145 22.4888 26.9809L22.4888 25.0115C22.2017 25.1756 21.8668 25.3397 21.5319 25.5038Z" fill="#F48BA2"/>
<path d="M23.9243 26.0617C24.2593 25.7991 24.5942 25.5365 24.8813 25.2411L24.8813 23.2717C24.5942 23.5671 24.2593 23.8297 23.9243 24.0923L23.9243 26.0617Z" fill="#F48BA2"/>
<path d="M15.8763 18.6116L15.8763 19.9018L17.2255 19.9018L17.2255 20.9115L15.8763 20.9115L15.8763 21.7329L14.6906 21.7329L14.6906 20.9115L14.0656 20.9115L14.0656 21.7329L12.8799 21.7329L12.8799 20.9115L8.72119 20.9115L8.72119 18.6797C8.72119 18.036 8.96651 17.5218 9.45714 17.1371C9.94388 16.7525 10.5922 16.5602 11.4022 16.5602C12.2277 16.5602 12.876 16.7431 13.3472 17.1091C13.8144 17.475 14.0539 17.9839 14.0656 18.6357L14.0656 19.9018L14.6906 19.9018L14.6906 18.6116L15.8763 18.6116ZM12.8799 19.9018L12.8799 18.6958C12.8799 18.3325 12.7572 18.0547 12.5119 17.8624C12.2666 17.67 11.9006 17.5739 11.4138 17.5739C10.9777 17.5739 10.6214 17.6687 10.345 17.8584C10.0685 18.0453 9.92441 18.3044 9.91273 18.6357L9.91273 19.9018L12.8799 19.9018Z" fill="#F48BA2"/>
<path d="M26.7951 16.973C26.7951 21.4041 20.8141 25.0147 13.3976 25.0147C5.98105 25.0147 -2.30067e-07 21.4041 -5.12423e-07 16.973C-7.94778e-07 12.5418 5.98105 8.93124 13.3976 8.93124C20.8141 8.93124 26.7951 12.5418 26.7951 16.973Z" fill="white"/>
<path d="M13.3976 25.0147C6.55523 25.0147 0.90912 21.9293 0.0956963 17.9576C0.0478479 18.2859 -5.33338e-07 18.6141 -5.12423e-07 18.9423C-2.30067e-07 23.3735 5.98105 26.9841 13.3976 26.9841C20.8141 26.9841 26.7951 23.3735 26.7951 18.9423C26.7951 18.6141 26.7473 18.2859 26.6994 17.9576C25.886 21.9293 20.2399 25.0147 13.3976 25.0147Z" fill="#FFBFCD"/>
<path d="M24.1635 16.9402C24.1635 17.2028 24.1635 17.4325 24.1157 17.6623C24.0678 17.8264 23.8286 17.9577 23.5893 17.9577C23.3501 17.9249 23.1587 17.7608 23.1587 17.5967C23.2065 17.3997 23.2065 17.2028 23.2065 16.973C23.2065 16.7761 23.3979 16.6448 23.685 16.6448C23.9721 16.6448 24.1635 16.7761 24.1635 16.9402ZM23.6372 15.0364C23.6372 15.1677 23.5415 15.299 23.3501 15.3319C23.1108 15.3975 22.8237 15.299 22.728 15.1349C22.6324 14.938 22.4888 14.741 22.3453 14.5769C22.2017 14.4128 22.2974 14.2159 22.5367 14.1502C22.7759 14.0517 23.063 14.1174 23.1587 14.2815C23.3022 14.4784 23.4458 14.7082 23.5415 14.9051C23.6372 14.9708 23.6372 15.0036 23.6372 15.0364ZM23.3022 19.4676C23.3022 19.5332 23.3022 19.5661 23.2544 19.6317C23.1108 19.8287 22.9194 20.0256 22.7759 20.2225C22.6324 20.3866 22.3453 20.4195 22.106 20.321C21.8668 20.2225 21.8189 20.0256 21.9625 19.8615C22.106 19.6974 22.2974 19.5004 22.3931 19.3363C22.5367 19.1722 22.8237 19.1065 23.0151 19.205C23.2065 19.2378 23.3022 19.3691 23.3022 19.4676ZM21.5797 12.8701C21.5797 12.9686 21.5318 13.0342 21.4361 13.0999C21.2447 13.2312 20.9577 13.2312 20.7663 13.0999C20.5749 12.9686 20.3356 12.8045 20.0964 12.6732C19.905 12.5747 19.8571 12.3449 20.0485 12.2136C20.2399 12.0823 20.527 12.0495 20.7184 12.1808C20.9577 12.3121 21.2447 12.4762 21.4361 12.6403C21.5318 12.706 21.5797 12.8045 21.5797 12.8701ZM20.9098 21.4698C20.9098 21.5683 20.862 21.6668 20.7184 21.7324C20.4792 21.8637 20.1921 22.0278 19.905 22.1263C19.6658 22.2248 19.3787 22.1919 19.2351 22.0278C19.0916 21.8637 19.1394 21.6668 19.3787 21.5683C19.6179 21.437 19.8571 21.3385 20.0964 21.2072C20.2878 21.0759 20.6227 21.1088 20.7663 21.2401C20.862 21.3385 20.9098 21.4042 20.9098 21.4698ZM18.4695 11.4259C18.4695 11.4587 18.4695 11.5243 18.4217 11.5572C18.326 11.7213 18.0389 11.7869 17.7997 11.7213C17.5126 11.6228 17.2255 11.5572 16.9384 11.4915C16.6991 11.4259 16.5556 11.2618 16.6513 11.0648C16.747 10.9007 16.9862 10.8022 17.2733 10.8679C17.6083 10.9335 17.8954 11.032 18.1824 11.0976C18.3738 11.1961 18.4695 11.2946 18.4695 11.4259ZM17.6083 22.7499C17.6083 22.8812 17.4647 23.0125 17.2733 23.0453C16.9862 23.111 16.6513 23.1766 16.3164 23.2423C16.0771 23.2751 15.79 23.1766 15.7422 23.0125C15.6943 22.8484 15.8379 22.6515 16.0771 22.6186C16.3642 22.553 16.6513 22.5202 16.9384 22.4545C17.1776 22.3889 17.4647 22.4873 17.5604 22.6515C17.6083 22.6515 17.6083 22.6843 17.6083 22.7499ZM14.7852 10.8022C14.7852 10.835 14.7852 10.835 14.7852 10.8022C14.7852 10.9992 14.546 11.1305 14.2589 11.1305C13.9718 11.1305 13.6847 11.0976 13.3976 11.0976C13.1105 11.0976 12.9191 10.9663 12.9191 10.7694C12.9191 10.5725 13.1105 10.4412 13.3976 10.4412C13.7325 10.4412 14.0196 10.4412 14.3546 10.474C14.5938 10.5068 14.7852 10.6381 14.7852 10.8022ZM13.8761 23.1438C13.8761 23.3408 13.6847 23.472 13.3976 23.472C13.0627 23.472 12.7277 23.472 12.4406 23.4392C12.2014 23.4392 11.9622 23.2751 12.01 23.0782C12.01 22.8812 12.2492 22.7499 12.5363 22.7828C12.8234 22.7828 13.1584 22.8156 13.4455 22.8156C13.6847 22.8156 13.8761 22.9797 13.8761 23.1438ZM11.0052 11.032C11.0052 11.1633 10.8616 11.3274 10.6224 11.3602C10.3353 11.4259 10.0482 11.4587 9.76113 11.5243C9.52189 11.59 9.23479 11.4915 9.1391 11.3274C9.0434 11.1633 9.18695 10.9663 9.42619 10.9007C9.71328 10.835 10.0482 10.7694 10.3832 10.7038C10.6224 10.6709 10.9095 10.7694 10.9573 10.9335C11.0052 10.9663 11.0052 10.9992 11.0052 11.032ZM10.1439 22.7499C10.1439 22.7828 10.1439 22.8156 10.0961 22.8484C10.0004 23.0125 9.76113 23.111 9.47404 23.0453C9.18695 22.9797 8.85201 22.8812 8.56492 22.8156C8.32568 22.7499 8.22998 22.553 8.32568 22.3889C8.42137 22.2248 8.70846 22.1591 8.94771 22.2248C9.2348 22.3232 9.52189 22.3889 9.80898 22.4545C10.0482 22.4873 10.1439 22.6186 10.1439 22.7499ZM7.5601 12.0823C7.5601 12.1808 7.4644 12.2793 7.36871 12.3449C7.12946 12.4762 6.89022 12.5747 6.65098 12.706C6.45959 12.8373 6.12465 12.8045 5.9811 12.6732C5.78971 12.5419 5.83756 12.3121 6.02895 12.2136C6.26819 12.0823 6.55528 11.9182 6.84237 11.8197C7.08162 11.7213 7.36871 11.7541 7.51225 11.9182C7.5601 11.951 7.5601 12.0167 7.5601 12.0823ZM6.84237 21.5026C6.84237 21.5683 6.79453 21.6339 6.74668 21.6996C6.60313 21.8309 6.26819 21.8637 6.0768 21.7324C5.83756 21.6011 5.55047 21.437 5.35907 21.2729C5.16768 21.1416 5.16768 20.9446 5.35907 20.8134C5.55047 20.6821 5.83756 20.6821 6.02895 20.8134C6.22035 20.9446 6.45959 21.1088 6.69883 21.2401C6.79453 21.3057 6.84237 21.4042 6.84237 21.5026ZM4.92844 13.9204C4.92844 13.9861 4.88059 14.0517 4.83274 14.0846C4.6892 14.2487 4.4978 14.4456 4.4021 14.6097C4.30641 14.7739 3.97147 14.8395 3.78008 14.741C3.54083 14.6754 3.44514 14.4784 3.58868 14.3143C3.73223 14.1174 3.92362 13.9204 4.06717 13.7235C4.21071 13.5594 4.4978 13.5266 4.73704 13.625C4.83274 13.6907 4.92844 13.822 4.92844 13.9204ZM4.44995 19.5004C4.44995 19.6317 4.35426 19.7302 4.21071 19.7958C3.97147 19.8943 3.68438 19.8287 3.58868 19.6645C3.44514 19.4676 3.30159 19.2378 3.20589 19.0409C3.1102 18.8768 3.25374 18.6798 3.49299 18.6142C3.73223 18.5485 4.01932 18.647 4.11501 18.8111C4.21071 19.0081 4.35426 19.205 4.4978 19.3691C4.44995 19.4019 4.44995 19.4348 4.44995 19.5004ZM3.63653 16.3494L3.63653 16.3822C3.58868 16.5791 3.58868 16.7761 3.58868 16.973C3.58868 17.17 3.39729 17.3013 3.1102 17.3013C2.82311 17.3013 2.63171 17.17 2.63171 16.973C2.63171 16.7433 2.63171 16.5135 2.67956 16.3166C2.72741 16.1524 2.96665 16.0211 3.20589 16.0211C3.44514 16.0211 3.63653 16.1853 3.63653 16.3494Z" fill="#FFBFCD"/>
<path d="M13.8761 25.0147L13.8761 26.9841C14.211 26.9841 14.4981 26.9513 14.8331 26.9513L14.8331 24.9819C14.4981 24.9819 14.211 25.0147 13.8761 25.0147Z" fill="#F48BA2"/>
<path d="M11.4836 24.9491L11.4836 26.9185C11.8186 26.9513 12.1057 26.9513 12.4406 26.9841L12.4406 25.0147C12.1057 24.9819 11.8186 24.9819 11.4836 24.9491Z" fill="#F48BA2"/>
<path d="M16.2686 24.8508L16.2686 26.8202C16.6035 26.7874 16.8906 26.7217 17.2255 26.6561L17.2255 24.6867C16.8906 24.7523 16.6035 24.7851 16.2686 24.8508Z" fill="#F48BA2"/>
<path d="M18.6609 24.391L18.6609 26.3604C18.9958 26.262 19.2829 26.1963 19.6179 26.0979L19.6179 24.1285C19.2829 24.1941 18.9958 24.2926 18.6609 24.391Z" fill="#F48BA2"/>
<path d="M9.09131 24.588L9.09131 26.5574C9.42625 26.6231 9.71334 26.6887 10.0483 26.7215L10.0483 24.7521C9.71334 24.7193 9.42625 24.6537 9.09131 24.588Z" fill="#F48BA2"/>
<path d="M6.69885 23.9316L6.69885 25.901C7.03379 25.9994 7.32088 26.0979 7.65582 26.1964L7.65582 24.227C7.32088 24.1613 7.03379 24.0628 6.69885 23.9316Z" fill="#F48BA2"/>
<path d="M3.82788 22.6186L3.82788 24.588C4.11497 24.785 4.44991 24.9491 4.78485 25.1132L4.78485 23.1438C4.44991 22.9797 4.11497 22.7827 3.82788 22.6186Z" fill="#F48BA2"/>
<path d="M1.43555 20.5836L1.43555 22.553C1.72264 22.8812 2.05758 23.2095 2.39252 23.5049L2.39252 21.5355C2.05758 21.2401 1.72264 20.9447 1.43555 20.5836Z" fill="#F48BA2"/>
<path d="M21.5319 23.3736L21.5319 25.343C21.8668 25.1788 22.2017 25.0147 22.4888 24.8506L22.4888 22.8812C22.2017 23.0453 21.8668 23.2094 21.5319 23.3736Z" fill="#F48BA2"/>
<path d="M23.9243 23.9317C24.2593 23.6691 24.5942 23.4065 24.8813 23.1111L24.8813 21.1417C24.5942 21.4371 24.2593 21.6997 23.9243 21.9623L23.9243 23.9317Z" fill="#F48BA2"/>
<path d="M15.8763 16.4815L15.8763 17.7717L17.2255 17.7717L17.2255 18.7814L15.8763 18.7814L15.8763 19.6028L14.6906 19.6028L14.6906 18.7814L14.0656 18.7814L14.0656 19.6028L12.8799 19.6028L12.8799 18.7814L8.72119 18.7814L8.72119 16.5496C8.72119 15.9059 8.96651 15.3917 9.45714 15.007C9.94388 14.6224 10.5922 14.43 11.4022 14.43C12.2277 14.43 12.876 14.613 13.3472 14.979C13.8144 15.3449 14.0539 15.8538 14.0656 16.5055L14.0656 17.7717L14.6906 17.7717L14.6906 16.4815L15.8763 16.4815ZM12.8799 17.7717L12.8799 16.5656C12.8799 16.2024 12.7572 15.9246 12.5119 15.7322C12.2666 15.5399 11.9006 15.4438 11.4138 15.4438C10.9777 15.4438 10.6214 15.5386 10.345 15.7282C10.0685 15.9152 9.92441 16.1743 9.91273 16.5055L9.91273 17.7717L12.8799 17.7717Z" fill="#F48BA2"/>
<path d="M26.7951 14.8514C26.7951 19.2826 20.8141 22.8931 13.3976 22.8931C5.98105 22.8931 -2.30067e-07 19.2826 -5.12423e-07 14.8514C-7.94778e-07 10.4202 5.98105 6.80967 13.3976 6.80967C20.8141 6.80967 26.7951 10.4202 26.7951 14.8514Z" fill="white"/>
<path d="M13.3976 22.8932C6.55523 22.8932 0.90912 19.8078 0.0956963 15.8362C0.0478479 16.1644 -5.33338e-07 16.4926 -5.12423e-07 16.8209C-2.30067e-07 21.252 5.98105 24.8626 13.3976 24.8626C20.8141 24.8626 26.7951 21.252 26.7951 16.8209C26.7951 16.4926 26.7473 16.1644 26.6994 15.8362C25.886 19.8078 20.2399 22.8932 13.3976 22.8932Z" fill="#FFBFCD"/>
<path d="M24.1635 14.8186C24.1635 15.0812 24.1635 15.311 24.1157 15.5407C24.0678 15.7049 23.8286 15.8362 23.5893 15.8362C23.3501 15.8033 23.1587 15.6392 23.1587 15.4751C23.2065 15.2782 23.2065 15.0812 23.2065 14.8515C23.2065 14.6545 23.3979 14.5232 23.685 14.5232C23.9721 14.5232 24.1635 14.6545 24.1635 14.8186ZM23.6372 12.9149C23.6372 13.0462 23.5415 13.1775 23.3501 13.2103C23.1108 13.2759 22.8237 13.1775 22.728 13.0133C22.6324 12.8164 22.4888 12.6195 22.3453 12.4553C22.2017 12.2912 22.2974 12.0943 22.5367 12.0286C22.7759 11.9302 23.063 11.9958 23.1587 12.1599C23.3022 12.3569 23.4458 12.5866 23.5415 12.7836C23.6372 12.8492 23.6372 12.882 23.6372 12.9149ZM23.3022 17.346C23.3022 17.4117 23.3022 17.4445 23.2544 17.5101C23.1108 17.7071 22.9194 17.904 22.7759 18.101C22.6324 18.2651 22.3453 18.2979 22.106 18.1994C21.8668 18.101 21.8189 17.904 21.9625 17.7399C22.106 17.5758 22.2974 17.3789 22.3931 17.2147C22.5367 17.0506 22.8237 16.985 23.0151 17.0834C23.2065 17.1163 23.3022 17.2476 23.3022 17.346ZM21.5797 10.7485C21.5797 10.847 21.5318 10.9126 21.4361 10.9783C21.2447 11.1096 20.9577 11.1096 20.7663 10.9783C20.5749 10.847 20.3356 10.6829 20.0964 10.5516C19.905 10.4531 19.8571 10.2234 20.0485 10.0921C20.2399 9.96077 20.527 9.92795 20.7184 10.0592C20.9577 10.1905 21.2447 10.3546 21.4361 10.5188C21.5318 10.5844 21.5797 10.6829 21.5797 10.7485ZM20.9098 19.3483C20.9098 19.4467 20.862 19.5452 20.7184 19.6108C20.4792 19.7421 20.1921 19.9063 19.905 20.0047C19.6658 20.1032 19.3787 20.0704 19.2351 19.9063C19.0916 19.7421 19.1394 19.5452 19.3787 19.4467C19.6179 19.3154 19.8571 19.217 20.0964 19.0857C20.2878 18.9544 20.6227 18.9872 20.7663 19.1185C20.862 19.217 20.9098 19.2826 20.9098 19.3483ZM18.4695 9.3043C18.4695 9.33713 18.4695 9.40277 18.4217 9.4356C18.326 9.59971 18.0389 9.66536 17.7997 9.59971C17.5126 9.50124 17.2255 9.4356 16.9384 9.36995C16.6991 9.3043 16.5556 9.14019 16.6513 8.94325C16.747 8.77913 16.9862 8.68066 17.2733 8.74631C17.6083 8.81195 17.8954 8.91042 18.1824 8.97607C18.3738 9.07454 18.4695 9.17301 18.4695 9.3043ZM17.6083 20.6284C17.6083 20.7597 17.4647 20.891 17.2733 20.9238C16.9862 20.9894 16.6513 21.0551 16.3164 21.1207C16.0771 21.1535 15.79 21.0551 15.7422 20.891C15.6943 20.7268 15.8379 20.5299 16.0771 20.4971C16.3642 20.4314 16.6513 20.3986 16.9384 20.333C17.1776 20.2673 17.4647 20.3658 17.5604 20.5299C17.6083 20.5299 17.6083 20.5627 17.6083 20.6284ZM14.7852 8.68066C14.7852 8.71348 14.7852 8.71348 14.7852 8.68066C14.7852 8.8776 14.546 9.00889 14.2589 9.00889C13.9718 9.00889 13.6847 8.97607 13.3976 8.97607C13.1105 8.97607 12.9191 8.84477 12.9191 8.64783C12.9191 8.4509 13.1105 8.3196 13.3976 8.3196C13.7325 8.3196 14.0196 8.3196 14.3546 8.35243C14.5938 8.38525 14.7852 8.51654 14.7852 8.68066ZM13.8761 21.0222C13.8761 21.2192 13.6847 21.3505 13.3976 21.3505C13.0627 21.3505 12.7277 21.3505 12.4406 21.3177C12.2014 21.3177 11.9622 21.1535 12.01 20.9566C12.01 20.7597 12.2492 20.6284 12.5363 20.6612C12.8234 20.6612 13.1584 20.694 13.4455 20.694C13.6847 20.694 13.8761 20.8581 13.8761 21.0222ZM11.0052 8.91042C11.0052 9.04172 10.8616 9.20583 10.6224 9.23866C10.3353 9.3043 10.0482 9.33713 9.76113 9.40277C9.52189 9.46842 9.23479 9.36995 9.1391 9.20583C9.0434 9.04172 9.18695 8.84478 9.42619 8.77913C9.71328 8.71348 10.0482 8.64784 10.3832 8.58219C10.6224 8.54937 10.9095 8.64783 10.9573 8.81195C11.0052 8.84477 11.0052 8.8776 11.0052 8.91042ZM10.1439 20.6284C10.1439 20.6612 10.1439 20.694 10.0961 20.7268C10.0004 20.891 9.76113 20.9894 9.47404 20.9238C9.18695 20.8581 8.85201 20.7597 8.56492 20.694C8.32568 20.6284 8.22998 20.4314 8.32568 20.2673C8.42137 20.1032 8.70846 20.0375 8.94771 20.1032C9.2348 20.2017 9.52189 20.2673 9.80898 20.333C10.0482 20.3658 10.1439 20.4971 10.1439 20.6284ZM7.5601 9.96077C7.5601 10.0592 7.4644 10.1577 7.36871 10.2234C7.12946 10.3547 6.89022 10.4531 6.65098 10.5844C6.45959 10.7157 6.12465 10.6829 5.9811 10.5516C5.78971 10.4203 5.83756 10.1905 6.02895 10.0921C6.26819 9.96077 6.55528 9.79665 6.84237 9.69818C7.08162 9.59971 7.36871 9.63254 7.51225 9.79665C7.5601 9.82948 7.5601 9.89512 7.5601 9.96077ZM6.84237 19.3811C6.84237 19.4467 6.79453 19.5124 6.74668 19.578C6.60313 19.7093 6.26819 19.7421 6.0768 19.6108C5.83756 19.4795 5.55047 19.3154 5.35907 19.1513C5.16768 19.02 5.16768 18.8231 5.35907 18.6918C5.55047 18.5605 5.83756 18.5605 6.02895 18.6918C6.22035 18.8231 6.45959 18.9872 6.69883 19.1185C6.79453 19.1841 6.84237 19.2826 6.84237 19.3811ZM4.92844 11.7989C4.92844 11.8645 4.88059 11.9302 4.83274 11.963C4.6892 12.1271 4.4978 12.3241 4.4021 12.4882C4.30641 12.6523 3.97147 12.7179 3.78008 12.6195C3.54083 12.5538 3.44514 12.3569 3.58868 12.1928C3.73223 11.9958 3.92362 11.7989 4.06717 11.6019C4.21071 11.4378 4.4978 11.405 4.73704 11.5035C4.83274 11.5691 4.92844 11.7004 4.92844 11.7989ZM4.44995 17.3789C4.44995 17.5101 4.35426 17.6086 4.21071 17.6743C3.97147 17.7727 3.68438 17.7071 3.58868 17.543C3.44514 17.346 3.30159 17.1163 3.20589 16.9193C3.1102 16.7552 3.25374 16.5583 3.49299 16.4926C3.73223 16.427 4.01932 16.5254 4.11501 16.6896C4.21071 16.8865 4.35426 17.0834 4.4978 17.2476C4.44995 17.2804 4.44995 17.3132 4.44995 17.3789ZM3.63653 14.2278L3.63653 14.2606C3.58868 14.4576 3.58868 14.6545 3.58868 14.8515C3.58868 15.0484 3.39729 15.1797 3.1102 15.1797C2.82311 15.1797 2.63171 15.0484 2.63171 14.8515C2.63171 14.6217 2.63171 14.3919 2.67956 14.195C2.72741 14.0309 2.96665 13.8996 3.20589 13.8996C3.44514 13.8996 3.63653 14.0637 3.63653 14.2278Z" fill="#FFBFCD"/>
<path d="M13.8761 22.8931L13.8761 24.8625C14.211 24.8625 14.4981 24.8297 14.8331 24.8297L14.8331 22.8603C14.4981 22.8603 14.211 22.8931 13.8761 22.8931Z" fill="#F48BA2"/>
<path d="M11.4836 22.8275L11.4836 24.7969C11.8186 24.8297 12.1057 24.8297 12.4406 24.8625L12.4406 22.8931C12.1057 22.8603 11.8186 22.8603 11.4836 22.8275Z" fill="#F48BA2"/>
<path d="M16.2686 22.729L16.2686 24.6984C16.6035 24.6655 16.8906 24.5999 17.2255 24.5342L17.2255 22.5648C16.8906 22.6305 16.6035 22.6633 16.2686 22.729Z" fill="#F48BA2"/>
<path d="M18.6609 22.2695L18.6609 24.2389C18.9958 24.1404 19.2829 24.0748 19.6179 23.9763L19.6179 22.0069C19.2829 22.0725 18.9958 22.171 18.6609 22.2695Z" fill="#F48BA2"/>
<path d="M9.09131 22.4665L9.09131 24.4359C9.42625 24.5015 9.71334 24.5672 10.0483 24.6L10.0483 22.6306C9.71334 22.5977 9.42625 22.5321 9.09131 22.4665Z" fill="#F48BA2"/>
<path d="M6.69885 21.81L6.69885 23.7794C7.03379 23.8779 7.32088 23.9763 7.65582 24.0748L7.65582 22.1054C7.32088 22.0398 7.03379 21.9413 6.69885 21.81Z" fill="#F48BA2"/>
<path d="M3.82788 20.4969L3.82788 22.4663C4.11497 22.6633 4.44991 22.8274 4.78485 22.9915L4.78485 21.0221C4.44991 20.858 4.11497 20.6611 3.82788 20.4969Z" fill="#F48BA2"/>
<path d="M1.43555 18.4621L1.43555 20.4315C1.72264 20.7597 2.05758 21.0879 2.39252 21.3833L2.39252 19.4139C2.05758 19.1185 1.72264 18.8231 1.43555 18.4621Z" fill="#F48BA2"/>
<path d="M21.5319 21.252L21.5319 23.2214C21.8668 23.0573 22.2017 22.8932 22.4888 22.729L22.4888 20.7596C22.2017 20.9238 21.8668 21.0879 21.5319 21.252Z" fill="#F48BA2"/>
<path d="M23.9243 21.8098C24.2593 21.5473 24.5942 21.2847 24.8813 20.9893L24.8813 19.0199C24.5942 19.3153 24.2593 19.5779 23.9243 19.8404L23.9243 21.8098Z" fill="#F48BA2"/>
<path d="M15.8763 14.36L15.8763 15.6501L17.2255 15.6501L17.2255 16.6598L15.8763 16.6598L15.8763 17.4812L14.6906 17.4812L14.6906 16.6598L14.0656 16.6598L14.0656 17.4812L12.8799 17.4812L12.8799 16.6598L8.72119 16.6598L8.72119 14.4281C8.72119 13.7843 8.96651 13.2701 9.45714 12.8855C9.94388 12.5008 10.5922 12.3085 11.4022 12.3085C12.2277 12.3085 12.876 12.4915 13.3472 12.8574C13.8144 13.2234 14.0539 13.7322 14.0656 14.384L14.0656 15.6501L14.6906 15.6501L14.6906 14.36L15.8763 14.36ZM12.8799 15.6501L12.8799 14.4441C12.8799 14.0808 12.7572 13.803 12.5119 13.6107C12.2666 13.4184 11.9006 13.3222 11.4138 13.3222C10.9777 13.3222 10.6214 13.417 10.345 13.6067C10.0685 13.7937 9.92441 14.0528 9.91273 14.384L9.91273 15.6501L12.8799 15.6501Z" fill="#F48BA2"/>
<path d="M26.7951 12.6444C26.7951 17.0755 20.8141 20.6861 13.3976 20.6861C5.98105 20.6861 -2.30067e-07 17.0755 -5.12423e-07 12.6444C-7.94778e-07 8.21321 5.98105 4.60264 13.3976 4.60264C20.8141 4.60264 26.7951 8.21321 26.7951 12.6444Z" fill="white"/>
<path d="M13.3976 20.6862C6.55523 20.6862 0.90912 17.6008 0.0956963 13.6292C0.0478479 13.9574 -5.33338e-07 14.2856 -5.12423e-07 14.6139C-2.30067e-07 19.045 5.98105 22.6556 13.3976 22.6556C20.8141 22.6556 26.7951 19.045 26.7951 14.6139C26.7951 14.2856 26.7473 13.9574 26.6994 13.6292C25.886 17.6008 20.2399 20.6862 13.3976 20.6862Z" fill="#FFBFCD"/>
<path d="M24.1635 12.6116C24.1635 12.8742 24.1635 13.1039 24.1157 13.3337C24.0678 13.4978 23.8286 13.6291 23.5893 13.6291C23.3501 13.5963 23.1587 13.4322 23.1587 13.2681C23.2065 13.0711 23.2065 12.8742 23.2065 12.6444C23.2065 12.4475 23.3979 12.3162 23.685 12.3162C23.9721 12.3162 24.1635 12.4475 24.1635 12.6116ZM23.6372 10.7078C23.6372 10.8391 23.5415 10.9704 23.3501 11.0033C23.1108 11.0689 22.8237 10.9704 22.728 10.8063C22.6324 10.6094 22.4888 10.4124 22.3453 10.2483C22.2017 10.0842 22.2974 9.88726 22.5367 9.82161C22.7759 9.72314 23.063 9.78879 23.1587 9.9529C23.3022 10.1498 23.4458 10.3796 23.5415 10.5765C23.6372 10.6422 23.6372 10.675 23.6372 10.7078ZM23.3022 15.139C23.3022 15.2046 23.3022 15.2375 23.2544 15.3031C23.1108 15.5001 22.9194 15.697 22.7759 15.8939C22.6324 16.0581 22.3453 16.0909 22.106 15.9924C21.8668 15.8939 21.8189 15.697 21.9625 15.5329C22.106 15.3688 22.2974 15.1718 22.3931 15.0077C22.5367 14.8436 22.8237 14.7779 23.0151 14.8764C23.2065 14.9092 23.3022 15.0405 23.3022 15.139ZM21.5797 8.5415C21.5797 8.63997 21.5318 8.70562 21.4361 8.77126C21.2447 8.90256 20.9577 8.90256 20.7663 8.77126C20.5749 8.63997 20.3356 8.47585 20.0964 8.34456C19.905 8.24609 19.8571 8.01633 20.0485 7.88503C20.2399 7.75374 20.527 7.72092 20.7184 7.85221C20.9577 7.9835 21.2447 8.14762 21.4361 8.31174C21.5318 8.37738 21.5797 8.47585 21.5797 8.5415ZM20.9098 17.1412C20.9098 17.2397 20.862 17.3382 20.7184 17.4038C20.4792 17.5351 20.1921 17.6992 19.905 17.7977C19.6658 17.8962 19.3787 17.8633 19.2351 17.6992C19.0916 17.5351 19.1394 17.3382 19.3787 17.2397C19.6179 17.1084 19.8571 17.0099 20.0964 16.8786C20.2878 16.7473 20.6227 16.7802 20.7663 16.9115C20.862 17.0099 20.9098 17.0756 20.9098 17.1412ZM18.4695 7.09727C18.4695 7.13009 18.4695 7.19574 18.4217 7.22856C18.326 7.39268 18.0389 7.45833 17.7997 7.39268C17.5126 7.29421 17.2255 7.22856 16.9384 7.16292C16.6991 7.09727 16.5556 6.93315 16.6513 6.73621C16.747 6.5721 16.9862 6.47363 17.2733 6.53927C17.6083 6.60492 17.8954 6.70339 18.1824 6.76904C18.3738 6.86751 18.4695 6.96598 18.4695 7.09727ZM17.6083 18.4213C17.6083 18.5526 17.4647 18.6839 17.2733 18.7167C16.9862 18.7824 16.6513 18.848 16.3164 18.9137C16.0771 18.9465 15.79 18.848 15.7422 18.6839C15.6943 18.5198 15.8379 18.3229 16.0771 18.29C16.3642 18.2244 16.6513 18.1916 16.9384 18.1259C17.1776 18.0603 17.4647 18.1587 17.5604 18.3229C17.6083 18.3229 17.6083 18.3557 17.6083 18.4213ZM14.7852 6.47363C14.7852 6.50645 14.7852 6.50645 14.7852 6.47363C14.7852 6.67057 14.546 6.80186 14.2589 6.80186C13.9718 6.80186 13.6847 6.76904 13.3976 6.76904C13.1105 6.76904 12.9191 6.63774 12.9191 6.4408C12.9191 6.24386 13.1105 6.11257 13.3976 6.11257C13.7325 6.11257 14.0196 6.11257 14.3546 6.14539C14.5938 6.17822 14.7852 6.30951 14.7852 6.47363ZM13.8761 18.8152C13.8761 19.0122 13.6847 19.1434 13.3976 19.1434C13.0627 19.1434 12.7277 19.1434 12.4406 19.1106C12.2014 19.1106 11.9622 18.9465 12.01 18.7496C12.01 18.5526 12.2492 18.4213 12.5363 18.4542C12.8234 18.4542 13.1584 18.487 13.4455 18.487C13.6847 18.487 13.8761 18.6511 13.8761 18.8152ZM11.0052 6.70339C11.0052 6.83469 10.8616 6.9988 10.6224 7.03163C10.3353 7.09727 10.0482 7.1301 9.76113 7.19574C9.52189 7.26139 9.23479 7.16292 9.1391 6.9988C9.0434 6.83468 9.18695 6.63774 9.42619 6.5721C9.71328 6.50645 10.0482 6.4408 10.3832 6.37516C10.6224 6.34233 10.9095 6.4408 10.9573 6.60492C11.0052 6.63774 11.0052 6.67057 11.0052 6.70339ZM10.1439 18.4213C10.1439 18.4542 10.1439 18.487 10.0961 18.5198C10.0004 18.6839 9.76113 18.7824 9.47404 18.7167C9.18695 18.6511 8.85201 18.5526 8.56492 18.487C8.32568 18.4213 8.22998 18.2244 8.32568 18.0603C8.42137 17.8962 8.70846 17.8305 8.94771 17.8962C9.2348 17.9946 9.52189 18.0603 9.80898 18.1259C10.0482 18.1587 10.1439 18.29 10.1439 18.4213ZM7.5601 7.75374C7.5601 7.85221 7.4644 7.95068 7.36871 8.01633C7.12946 8.14762 6.89022 8.24609 6.65098 8.37738C6.45959 8.50868 6.12465 8.47585 5.9811 8.34456C5.78971 8.21327 5.83756 7.9835 6.02895 7.88503C6.26819 7.75374 6.55528 7.58962 6.84237 7.49115C7.08162 7.39268 7.36871 7.4255 7.51225 7.58962C7.5601 7.62244 7.5601 7.68809 7.5601 7.75374ZM6.84237 17.174C6.84237 17.2397 6.79453 17.3053 6.74668 17.371C6.60313 17.5023 6.26819 17.5351 6.0768 17.4038C5.83756 17.2725 5.55047 17.1084 5.35907 16.9443C5.16768 16.813 5.16768 16.616 5.35907 16.4848C5.55047 16.3535 5.83756 16.3535 6.02895 16.4848C6.22035 16.616 6.45959 16.7802 6.69883 16.9115C6.79453 16.9771 6.84237 17.0756 6.84237 17.174ZM4.92844 9.59185C4.92844 9.65749 4.88059 9.72314 4.83274 9.75597C4.6892 9.92008 4.4978 10.117 4.4021 10.2811C4.30641 10.4453 3.97147 10.5109 3.78008 10.4124C3.54083 10.3468 3.44514 10.1498 3.58868 9.98573C3.73223 9.78879 3.92362 9.59185 4.06717 9.39491C4.21071 9.23079 4.4978 9.19797 4.73704 9.29644C4.83274 9.36208 4.92844 9.49338 4.92844 9.59185ZM4.44995 15.1718C4.44995 15.3031 4.35426 15.4016 4.21071 15.4672C3.97147 15.5657 3.68438 15.5001 3.58868 15.3359C3.44514 15.139 3.30159 14.9092 3.20589 14.7123C3.1102 14.5482 3.25374 14.3512 3.49299 14.2856C3.73223 14.2199 4.01932 14.3184 4.11501 14.4825C4.21071 14.6795 4.35426 14.8764 4.4978 15.0405C4.44995 15.0733 4.44995 15.1062 4.44995 15.1718ZM3.63653 12.0208L3.63653 12.0536C3.58868 12.2505 3.58868 12.4475 3.58868 12.6444C3.58868 12.8414 3.39729 12.9727 3.1102 12.9727C2.82311 12.9727 2.63171 12.8414 2.63171 12.6444C2.63171 12.4147 2.63171 12.1849 2.67956 11.988C2.72741 11.8238 2.96665 11.6925 3.20589 11.6925C3.44514 11.6925 3.63653 11.8567 3.63653 12.0208Z" fill="#FFBFCD"/>
<path d="M13.8761 20.6861L13.8761 22.6555C14.211 22.6555 14.4981 22.6227 14.8331 22.6227L14.8331 20.6533C14.4981 20.6533 14.211 20.6861 13.8761 20.6861Z" fill="#F48BA2"/>
<path d="M11.4836 20.6205L11.4836 22.5899C11.8186 22.6227 12.1057 22.6227 12.4406 22.6555L12.4406 20.6861C12.1057 20.6533 11.8186 20.6533 11.4836 20.6205Z" fill="#F48BA2"/>
<path d="M16.2686 20.5219L16.2686 22.4913C16.6035 22.4585 16.8906 22.3929 17.2255 22.3272L17.2255 20.3578C16.8906 20.4235 16.6035 20.4563 16.2686 20.5219Z" fill="#F48BA2"/>
<path d="M18.6609 20.0624L18.6609 22.0318C18.9958 21.9334 19.2829 21.8677 19.6179 21.7693L19.6179 19.7999C19.2829 19.8655 18.9958 19.964 18.6609 20.0624Z" fill="#F48BA2"/>
<path d="M9.09131 20.2594L9.09131 22.2288C9.42625 22.2945 9.71334 22.3601 10.0483 22.3929L10.0483 20.4235C9.71334 20.3907 9.42625 20.3251 9.09131 20.2594Z" fill="#F48BA2"/>
<path d="M6.69885 19.603L6.69885 21.5724C7.03379 21.6708 7.32088 21.7693 7.65582 21.8678L7.65582 19.8984C7.32088 19.8327 7.03379 19.7343 6.69885 19.603Z" fill="#F48BA2"/>
<path d="M3.82788 18.29L3.82788 20.2594C4.11497 20.4564 4.44991 20.6205 4.78485 20.7846L4.78485 18.8152C4.44991 18.6511 4.11497 18.4542 3.82788 18.29Z" fill="#F48BA2"/>
<path d="M1.43555 16.2549L1.43555 18.2243C1.72264 18.5525 2.05758 18.8807 2.39252 19.1761L2.39252 17.2067C2.05758 16.9113 1.72264 16.6159 1.43555 16.2549Z" fill="#F48BA2"/>
<path d="M21.5319 19.0449L21.5319 21.0143C21.8668 20.8502 22.2017 20.6861 22.4888 20.522L22.4888 18.5526C22.2017 18.7167 21.8668 18.8808 21.5319 19.0449Z" fill="#F48BA2"/>
<path d="M23.9243 19.603C24.2593 19.3405 24.5942 19.0779 24.8813 18.7825L24.8813 16.8131C24.5942 17.1085 24.2593 17.3711 23.9243 17.6336L23.9243 19.603Z" fill="#F48BA2"/>
<path d="M15.8763 12.1528L15.8763 13.443L17.2255 13.443L17.2255 14.4527L15.8763 14.4527L15.8763 15.2741L14.6906 15.2741L14.6906 14.4527L14.0656 14.4527L14.0656 15.2741L12.8799 15.2741L12.8799 14.4527L8.72119 14.4527L8.72119 12.2209C8.72119 11.5772 8.96651 11.063 9.45714 10.6783C9.94388 10.2937 10.5922 10.1013 11.4022 10.1013C12.2277 10.1013 12.876 10.2843 13.3472 10.6503C13.8144 11.0162 14.0539 11.5251 14.0656 12.1768L14.0656 13.443L14.6906 13.443L14.6906 12.1528L15.8763 12.1528ZM12.8799 13.443L12.8799 12.2369C12.8799 11.8737 12.7572 11.5959 12.5119 11.4035C12.2666 11.2112 11.9006 11.115 11.4138 11.115C10.9777 11.115 10.6214 11.2099 10.345 11.3995C10.0685 11.5865 9.92441 11.8456 9.91273 12.1768L9.91273 13.443L12.8799 13.443Z" fill="#F48BA2"/>
<path d="M26.7951 10.5228C26.7951 14.954 20.8141 18.5646 13.3976 18.5646C5.98105 18.5646 -2.30067e-07 14.954 -5.12423e-07 10.5228C-7.94778e-07 6.09169 5.98105 2.48112 13.3976 2.48112C20.8141 2.48112 26.7951 6.09169 26.7951 10.5228Z" fill="#FFDCE4"/>
<path d="M13.3976 18.5646C6.55523 18.5646 0.90912 15.4792 0.0956963 11.5076C0.0478479 11.8358 -5.33338e-07 12.164 -5.12423e-07 12.4923C-2.30067e-07 16.9234 5.98105 20.534 13.3976 20.534C20.8141 20.534 26.7951 16.9234 26.7951 12.4923C26.7951 12.164 26.7473 11.8358 26.6994 11.5076C25.886 15.4792 20.2399 18.5646 13.3976 18.5646Z" fill="#FFBFCD"/>
<path d="M24.1635 10.4901C24.1635 10.7526 24.1635 10.9824 24.1157 11.2122C24.0678 11.3763 23.8286 11.5076 23.5893 11.5076C23.3501 11.4748 23.1587 11.3106 23.1587 11.1465C23.2065 10.9496 23.2065 10.7526 23.2065 10.5229C23.2065 10.3259 23.3979 10.1947 23.685 10.1947C23.9721 10.1947 24.1635 10.3259 24.1635 10.4901ZM23.6372 8.5863C23.6372 8.7176 23.5415 8.84889 23.3501 8.88172C23.1108 8.94736 22.8237 8.84889 22.728 8.68478C22.6324 8.48784 22.4888 8.2909 22.3453 8.12678C22.2017 7.96266 22.2974 7.76572 22.5367 7.70007C22.7759 7.6016 23.063 7.66725 23.1587 7.83137C23.3022 8.02831 23.4458 8.25807 23.5415 8.45501C23.6372 8.52066 23.6372 8.55348 23.6372 8.5863ZM23.3022 13.0175C23.3022 13.0831 23.3022 13.1159 23.2544 13.1816C23.1108 13.3785 22.9194 13.5755 22.7759 13.7724C22.6324 13.9365 22.3453 13.9693 22.106 13.8709C21.8668 13.7724 21.8189 13.5755 21.9625 13.4113C22.106 13.2472 22.2974 13.0503 22.3931 12.8862C22.5367 12.7221 22.8237 12.6564 23.0151 12.7549C23.2065 12.7877 23.3022 12.919 23.3022 13.0175ZM21.5797 6.41996C21.5797 6.51843 21.5318 6.58408 21.4361 6.64973C21.2447 6.78102 20.9577 6.78102 20.7663 6.64973C20.5749 6.51843 20.3356 6.35432 20.0964 6.22302C19.905 6.12455 19.8571 5.89479 20.0485 5.7635C20.2399 5.6322 20.527 5.59938 20.7184 5.73067C20.9577 5.86197 21.2447 6.02608 21.4361 6.1902C21.5318 6.25585 21.5797 6.35432 21.5797 6.41996ZM20.9098 15.0197C20.9098 15.1182 20.862 15.2166 20.7184 15.2823C20.4792 15.4136 20.1921 15.5777 19.905 15.6762C19.6658 15.7746 19.3787 15.7418 19.2351 15.5777C19.0916 15.4136 19.1394 15.2166 19.3787 15.1182C19.6179 14.9869 19.8571 14.8884 20.0964 14.7571C20.2878 14.6258 20.6227 14.6586 20.7663 14.7899C20.862 14.8884 20.9098 14.954 20.9098 15.0197ZM18.4695 4.97573C18.4695 5.00856 18.4695 5.0742 18.4217 5.10703C18.326 5.27115 18.0389 5.33679 17.7997 5.27115C17.5126 5.17268 17.2255 5.10703 16.9384 5.04138C16.6991 4.97574 16.5556 4.81162 16.6513 4.61468C16.747 4.45056 16.9862 4.35209 17.2733 4.41774C17.6083 4.48338 17.8954 4.58185 18.1824 4.6475C18.3738 4.74597 18.4695 4.84444 18.4695 4.97573ZM17.6083 16.2998C17.6083 16.4311 17.4647 16.5624 17.2733 16.5952C16.9862 16.6609 16.6513 16.7265 16.3164 16.7921C16.0771 16.825 15.79 16.7265 15.7422 16.5624C15.6943 16.3983 15.8379 16.2013 16.0771 16.1685C16.3642 16.1029 16.6513 16.07 16.9384 16.0044C17.1776 15.9387 17.4647 16.0372 17.5604 16.2013C17.6083 16.2013 17.6083 16.2342 17.6083 16.2998ZM14.7852 4.35209C14.7852 4.38491 14.7852 4.38491 14.7852 4.35209C14.7852 4.54903 14.546 4.68033 14.2589 4.68033C13.9718 4.68033 13.6847 4.6475 13.3976 4.6475C13.1105 4.6475 12.9191 4.51621 12.9191 4.31927C12.9191 4.12233 13.1105 3.99103 13.3976 3.99103C13.7325 3.99103 14.0196 3.99103 14.3546 4.02386C14.5938 4.05668 14.7852 4.18797 14.7852 4.35209ZM13.8761 16.6937C13.8761 16.8906 13.6847 17.0219 13.3976 17.0219C13.0627 17.0219 12.7277 17.0219 12.4406 16.9891C12.2014 16.9891 11.9622 16.825 12.01 16.628C12.01 16.4311 12.2492 16.2998 12.5363 16.3326C12.8234 16.3326 13.1584 16.3654 13.4455 16.3654C13.6847 16.3654 13.8761 16.5296 13.8761 16.6937ZM11.0052 4.58186C11.0052 4.71315 10.8616 4.87727 10.6224 4.91009C10.3353 4.97574 10.0482 5.00856 9.76113 5.07421C9.52189 5.13985 9.23479 5.04138 9.1391 4.87726C9.0434 4.71315 9.18695 4.51621 9.42619 4.45056C9.71328 4.38491 10.0482 4.31927 10.3832 4.25362C10.6224 4.2208 10.9095 4.31927 10.9573 4.48338C11.0052 4.51621 11.0052 4.54903 11.0052 4.58186ZM10.1439 16.2998C10.1439 16.3326 10.1439 16.3654 10.0961 16.3983C10.0004 16.5624 9.76113 16.6609 9.47404 16.5952C9.18695 16.5296 8.85201 16.4311 8.56492 16.3654C8.32568 16.2998 8.22998 16.1029 8.32568 15.9387C8.42137 15.7746 8.70846 15.709 8.94771 15.7746C9.2348 15.8731 9.52189 15.9387 9.80898 16.0044C10.0482 16.0372 10.1439 16.1685 10.1439 16.2998ZM7.5601 5.6322C7.5601 5.73067 7.4644 5.82914 7.36871 5.89479C7.12946 6.02608 6.89022 6.12455 6.65098 6.25585C6.45959 6.38714 6.12465 6.35432 5.9811 6.22302C5.78971 6.09173 5.83756 5.86197 6.02895 5.7635C6.26819 5.6322 6.55528 5.46809 6.84237 5.36962C7.08162 5.27115 7.36871 5.30397 7.51225 5.46809C7.5601 5.50091 7.5601 5.56656 7.5601 5.6322ZM6.84237 15.0525C6.84237 15.1182 6.79453 15.1838 6.74668 15.2494C6.60313 15.3807 6.26819 15.4136 6.0768 15.2823C5.83756 15.151 5.55047 14.9869 5.35907 14.8227C5.16768 14.6915 5.16768 14.4945 5.35907 14.3632C5.55047 14.2319 5.83756 14.2319 6.02895 14.3632C6.22035 14.4945 6.45959 14.6586 6.69883 14.7899C6.79453 14.8556 6.84237 14.954 6.84237 15.0525ZM4.92844 7.47031C4.92844 7.53596 4.88059 7.60161 4.83274 7.63443C4.6892 7.79855 4.4978 7.99549 4.4021 8.1596C4.30641 8.32372 3.97147 8.38937 3.78008 8.2909C3.54083 8.22525 3.44514 8.02831 3.58868 7.86419C3.73223 7.66725 3.92362 7.47031 4.06717 7.27337C4.21071 7.10925 4.4978 7.07643 4.73704 7.1749C4.83274 7.24055 4.92844 7.37184 4.92844 7.47031ZM4.44995 13.0503C4.44995 13.1816 4.35426 13.28 4.21071 13.3457C3.97147 13.4442 3.68438 13.3785 3.58868 13.2144C3.44514 13.0175 3.30159 12.7877 3.20589 12.5908C3.1102 12.4266 3.25374 12.2297 3.49299 12.1641C3.73223 12.0984 4.01932 12.1969 4.11501 12.361C4.21071 12.5579 4.35426 12.7549 4.4978 12.919C4.44995 12.9518 4.44995 12.9846 4.44995 13.0503ZM3.63653 9.89924L3.63653 9.93206C3.58868 10.129 3.58868 10.3259 3.58868 10.5229C3.58868 10.7198 3.39729 10.8511 3.1102 10.8511C2.82311 10.8511 2.63171 10.7198 2.63171 10.5229C2.63171 10.2931 2.63171 10.0634 2.67956 9.86642C2.72741 9.7023 2.96665 9.57101 3.20589 9.57101C3.44514 9.57101 3.63653 9.73512 3.63653 9.89924Z" fill="#FFBFCD"/>
<path d="M13.8761 18.5646L13.8761 20.534C14.211 20.534 14.4981 20.5012 14.8331 20.5012L14.8331 18.5318C14.4981 18.5318 14.211 18.5646 13.8761 18.5646Z" fill="#F48BA2"/>
<path d="M11.4836 18.4989L11.4836 20.4683C11.8186 20.5012 12.1057 20.5012 12.4406 20.534L12.4406 18.5646C12.1057 18.5318 11.8186 18.5318 11.4836 18.4989Z" fill="#F48BA2"/>
<path d="M16.2686 18.4004L16.2686 20.3698C16.6035 20.337 16.8906 20.2713 17.2255 20.2057L17.2255 18.2363C16.8906 18.3019 16.6035 18.3348 16.2686 18.4004Z" fill="#F48BA2"/>
<path d="M18.6609 17.941L18.6609 19.9104C18.9958 19.812 19.2829 19.7463 19.6179 19.6478L19.6179 17.6784C19.2829 17.7441 18.9958 17.8426 18.6609 17.941Z" fill="#F48BA2"/>
<path d="M9.09131 18.1379L9.09131 20.1073C9.42625 20.1729 9.71334 20.2386 10.0483 20.2714L10.0483 18.302C9.71334 18.2692 9.42625 18.2035 9.09131 18.1379Z" fill="#F48BA2"/>
<path d="M6.69885 17.4814L6.69885 19.4508C7.03379 19.5493 7.32088 19.6478 7.65582 19.7462L7.65582 17.7768C7.32088 17.7112 7.03379 17.6127 6.69885 17.4814Z" fill="#F48BA2"/>
<path d="M3.82788 16.1684L3.82788 18.1378C4.11497 18.3347 4.44991 18.4988 4.78485 18.663L4.78485 16.6936C4.44991 16.5294 4.11497 16.3325 3.82788 16.1684Z" fill="#F48BA2"/>
<path d="M1.43555 14.1335L1.43555 16.1029C1.72264 16.4311 2.05758 16.7593 2.39252 17.0547L2.39252 15.0853C2.05758 14.7899 1.72264 14.4945 1.43555 14.1335Z" fill="#F48BA2"/>
<path d="M21.5319 16.9235L21.5319 18.8929C21.8668 18.7288 22.2017 18.5647 22.4888 18.4006L22.4888 16.4312C22.2017 16.5953 21.8668 16.7594 21.5319 16.9235Z" fill="#F48BA2"/>
<path d="M23.9243 17.4813C24.2593 17.2187 24.5942 16.9561 24.8813 16.6607L24.8813 14.6913C24.5942 14.9867 24.2593 15.2493 23.9243 15.5119L23.9243 17.4813Z" fill="#F48BA2"/>
<path d="M15.8763 10.0313L15.8763 11.3214L17.2255 11.3214L17.2255 12.3311L15.8763 12.3311L15.8763 13.1525L14.6906 13.1525L14.6906 12.3311L14.0656 12.3311L14.0656 13.1525L12.8799 13.1525L12.8799 12.3311L8.72119 12.3311L8.72119 10.0994C8.72119 9.45562 8.96651 8.94142 9.45714 8.55677C9.94388 8.17212 10.5922 7.9798 11.4022 7.9798C12.2277 7.9798 12.876 8.16278 13.3472 8.52873C13.8144 8.89468 14.0539 9.40354 14.0656 10.0553L14.0656 11.3214L14.6906 11.3214L14.6906 10.0313L15.8763 10.0313ZM12.8799 11.3214L12.8799 10.1154C12.8799 9.75212 12.7572 9.47432 12.5119 9.282C12.2666 9.08967 11.9006 8.99351 11.4138 8.99351C10.9777 8.99351 10.6214 9.08834 10.345 9.27799C10.0685 9.46497 9.92441 9.72408 9.91273 10.0553L9.91273 11.3214L12.8799 11.3214Z" fill="#F48BA2"/>
<path d="M55.02 14.7107C55.02 19.1419 49.0389 22.7525 41.6224 22.7525C34.2059 22.7525 28.2249 19.1419 28.2249 14.7107C28.2249 10.2796 34.2059 6.66902 41.6224 6.66902C49.0389 6.66902 55.02 10.2796 55.02 14.7107Z" fill="white"/>
<path d="M41.6224 22.7525C34.7801 22.7525 29.134 19.6671 28.3205 15.6955C28.2727 16.0237 28.2249 16.352 28.2249 16.6802C28.2249 21.1114 34.2059 24.7219 41.6224 24.7219C49.0389 24.7219 55.02 21.1114 55.02 16.6802C55.02 16.352 54.9721 16.0237 54.9243 15.6955C54.1108 19.6671 48.4647 22.7525 41.6224 22.7525Z" fill="#FFBFCD"/>
<path d="M52.3884 14.678C52.3884 14.9405 52.3884 15.1703 52.3405 15.4001C52.2927 15.5642 52.0534 15.6955 51.8142 15.6955C51.5749 15.6627 51.3835 15.4985 51.3835 15.3344C51.4314 15.1375 51.4314 14.9405 51.4314 14.7108C51.4314 14.5138 51.6228 14.3825 51.9099 14.3825C52.197 14.3825 52.3884 14.5138 52.3884 14.678ZM51.862 12.7742C51.862 12.9055 51.7663 13.0368 51.5749 13.0696C51.3357 13.1353 51.0486 13.0368 50.9529 12.8727C50.8572 12.6757 50.7137 12.4788 50.5701 12.3147C50.4266 12.1506 50.5223 11.9536 50.7615 11.888C51.0008 11.7895 51.2878 11.8551 51.3835 12.0193C51.5271 12.2162 51.6706 12.446 51.7663 12.6429C51.862 12.7086 51.862 12.7414 51.862 12.7742ZM51.5271 17.2054C51.5271 17.271 51.5271 17.3038 51.4792 17.3695C51.3357 17.5664 51.1443 17.7634 51.0008 17.9603C50.8572 18.1244 50.5701 18.1572 50.3309 18.0588C50.0916 17.9603 50.0438 17.7634 50.1873 17.5992C50.3309 17.4351 50.5223 17.2382 50.618 17.0741C50.7615 16.9099 51.0486 16.8443 51.24 16.9428C51.4314 16.9756 51.5271 17.1069 51.5271 17.2054ZM49.8045 10.6079C49.8045 10.7063 49.7567 10.772 49.661 10.8376C49.4696 10.9689 49.1825 10.9689 48.9911 10.8376C48.7997 10.7063 48.5605 10.5422 48.3212 10.4109C48.1298 10.3124 48.082 10.0827 48.2734 9.95139C48.4648 9.8201 48.7519 9.78728 48.9433 9.91857C49.1825 10.0499 49.4696 10.214 49.661 10.3781C49.7567 10.4437 49.8045 10.5422 49.8045 10.6079ZM49.1347 19.2076C49.1347 19.3061 49.0868 19.4045 48.9433 19.4702C48.704 19.6015 48.4169 19.7656 48.1298 19.864C47.8906 19.9625 47.6035 19.9297 47.46 19.7656C47.3164 19.6015 47.3643 19.4045 47.6035 19.3061C47.8428 19.1748 48.082 19.0763 48.3212 18.945C48.5126 18.8137 48.8476 18.8465 48.9911 18.9778C49.0868 19.0763 49.1347 19.1419 49.1347 19.2076ZM46.6944 9.16363C46.6944 9.19645 46.6944 9.2621 46.6465 9.29493C46.5508 9.45904 46.2638 9.52469 46.0245 9.45904C45.7374 9.36057 45.4503 9.29493 45.1632 9.22928C44.924 9.16363 44.7805 8.99952 44.8762 8.80257C44.9718 8.63846 45.2111 8.53999 45.4982 8.60564C45.8331 8.67128 46.1202 8.76975 46.4073 8.8354C46.5987 8.93387 46.6944 9.03234 46.6944 9.16363ZM45.8331 20.4877C45.8331 20.619 45.6896 20.7503 45.4982 20.7831C45.2111 20.8488 44.8762 20.9144 44.5412 20.98C44.302 21.0129 44.0149 20.9144 43.967 20.7503C43.9192 20.5862 44.0627 20.3892 44.302 20.3564C44.5891 20.2908 44.8762 20.2579 45.1632 20.1923C45.4025 20.1266 45.6896 20.2251 45.7853 20.3892C45.8331 20.3892 45.8331 20.422 45.8331 20.4877ZM43.0101 8.53999C43.0101 8.57281 43.0101 8.57281 43.0101 8.53999C43.0101 8.73693 42.7708 8.86822 42.4837 8.86822C42.1966 8.86822 41.9096 8.8354 41.6225 8.8354C41.3354 8.8354 41.144 8.7041 41.144 8.50716C41.144 8.31022 41.3354 8.17893 41.6225 8.17893C41.9574 8.17893 42.2445 8.17893 42.5794 8.21175C42.8187 8.24458 43.0101 8.37587 43.0101 8.53999ZM42.1009 20.8816C42.1009 21.0785 41.9096 21.2098 41.6225 21.2098C41.2875 21.2098 40.9526 21.2098 40.6655 21.177C40.4263 21.177 40.187 21.0129 40.2349 20.8159C40.2349 20.619 40.4741 20.4877 40.7612 20.5205C41.0483 20.5205 41.3832 20.5533 41.6703 20.5533C41.9096 20.5533 42.1009 20.7175 42.1009 20.8816ZM39.23 8.76975C39.23 8.90105 39.0865 9.06516 38.8473 9.09799C38.5602 9.16363 38.2731 9.19646 37.986 9.2621C37.7467 9.32775 37.4596 9.22928 37.364 9.06516C37.2683 8.90104 37.4118 8.70411 37.651 8.63846C37.9381 8.57281 38.2731 8.50716 38.608 8.44152C38.8473 8.40869 39.1343 8.50716 39.1822 8.67128C39.23 8.7041 39.23 8.73693 39.23 8.76975ZM38.3688 20.4877C38.3688 20.5205 38.3688 20.5533 38.3209 20.5862C38.2252 20.7503 37.986 20.8488 37.6989 20.7831C37.4118 20.7175 37.0769 20.619 36.7898 20.5533C36.5505 20.4877 36.4548 20.2908 36.5505 20.1266C36.6462 19.9625 36.9333 19.8969 37.1726 19.9625C37.4596 20.061 37.7467 20.1266 38.0338 20.1923C38.2731 20.2251 38.3688 20.3564 38.3688 20.4877ZM35.785 9.8201C35.785 9.91857 35.6893 10.017 35.5936 10.0827C35.3543 10.214 35.1151 10.3125 34.8758 10.4437C34.6844 10.575 34.3495 10.5422 34.206 10.4109C34.0146 10.2796 34.0624 10.0499 34.2538 9.95139C34.493 9.8201 34.7801 9.65598 35.0672 9.55751C35.3065 9.45904 35.5936 9.49187 35.7371 9.65598C35.785 9.68881 35.785 9.75445 35.785 9.8201ZM35.0672 19.2404C35.0672 19.3061 35.0194 19.3717 34.9715 19.4373C34.828 19.5686 34.493 19.6015 34.3017 19.4702C34.0624 19.3389 33.7753 19.1748 33.5839 19.0106C33.3925 18.8793 33.3925 18.6824 33.5839 18.5511C33.7753 18.4198 34.0624 18.4198 34.2538 18.5511C34.4452 18.6824 34.6844 18.8465 34.9237 18.9778C35.0194 19.0435 35.0672 19.1419 35.0672 19.2404ZM33.1533 11.6582C33.1533 11.7239 33.1054 11.7895 33.0576 11.8223C32.914 11.9864 32.7227 12.1834 32.627 12.3475C32.5313 12.5116 32.1963 12.5773 32.0049 12.4788C31.7657 12.4131 31.67 12.2162 31.8135 12.0521C31.9571 11.8551 32.1485 11.6582 32.292 11.4613C32.4356 11.2972 32.7227 11.2643 32.9619 11.3628C33.0576 11.4284 33.1533 11.5597 33.1533 11.6582ZM32.6748 17.2382C32.6748 17.3695 32.5791 17.4679 32.4356 17.5336C32.1963 17.6321 31.9092 17.5664 31.8135 17.4023C31.67 17.2054 31.5264 16.9756 31.4307 16.7787C31.3351 16.6145 31.4786 16.4176 31.7178 16.3519C31.9571 16.2863 32.2442 16.3848 32.3399 16.5489C32.4356 16.7458 32.5791 16.9428 32.7227 17.1069C32.6748 17.1397 32.6748 17.1725 32.6748 17.2382ZM31.8614 14.0871L31.8614 14.12C31.8135 14.3169 31.8135 14.5138 31.8135 14.7108C31.8135 14.9077 31.6221 15.039 31.3351 15.039C31.048 15.039 30.8566 14.9077 30.8566 14.7108C30.8566 14.481 30.8566 14.2513 30.9044 14.0543C30.9523 13.8902 31.1915 13.7589 31.4307 13.7589C31.67 13.7589 31.8614 13.923 31.8614 14.0871Z" fill="#FFBFCD"/>
<path d="M42.101 22.7525L42.101 24.7219C42.4359 24.7219 42.723 24.6891 43.0579 24.6891L43.0579 22.7197C42.723 22.7197 42.4359 22.7525 42.101 22.7525Z" fill="#F48BA2"/>
<path d="M39.7085 22.6868L39.7085 24.6562C40.0434 24.6891 40.3305 24.6891 40.6655 24.7219L40.6655 22.7525C40.3305 22.7197 40.0434 22.7197 39.7085 22.6868Z" fill="#F48BA2"/>
<path d="M44.4934 22.5884L44.4934 24.5578C44.8283 24.525 45.1154 24.4593 45.4504 24.3937L45.4504 22.4243C45.1154 22.4899 44.8283 22.5228 44.4934 22.5884Z" fill="#F48BA2"/>
<path d="M46.8857 22.1288L46.8857 24.0982C47.2207 23.9997 47.5078 23.9341 47.8427 23.8356L47.8427 21.8662C47.5078 21.9319 47.2207 22.0303 46.8857 22.1288Z" fill="#F48BA2"/>
<path d="M37.3162 22.3258L37.3162 24.2952C37.6511 24.3608 37.9382 24.4265 38.2731 24.4593L38.2731 22.4899C37.9382 22.4571 37.6511 22.3914 37.3162 22.3258Z" fill="#F48BA2"/>
<path d="M34.9237 21.6693L34.9237 23.6387C35.2586 23.7372 35.5457 23.8357 35.8807 23.9341L35.8807 21.9647C35.5457 21.8991 35.2586 21.8006 34.9237 21.6693Z" fill="#F48BA2"/>
<path d="M32.0527 20.3563L32.0527 22.3257C32.3398 22.5226 32.6748 22.6867 33.0097 22.8509L33.0097 20.8815C32.6748 20.7173 32.3398 20.5204 32.0527 20.3563Z" fill="#F48BA2"/>
<path d="M29.6604 18.3212L29.6604 20.2906C29.9475 20.6189 30.2824 20.9471 30.6174 21.2425L30.6174 19.2731C30.2824 18.9777 29.9475 18.6823 29.6604 18.3212Z" fill="#F48BA2"/>
<path d="M49.7567 21.1113L49.7567 23.0807C50.0917 22.9166 50.4266 22.7525 50.7137 22.5884L50.7137 20.619C50.4266 20.7831 50.0917 20.9472 49.7567 21.1113Z" fill="#F48BA2"/>
<path d="M52.1492 21.6693C52.4841 21.4067 52.819 21.1441 53.1061 20.8487L53.1061 18.8793C52.819 19.1747 52.4841 19.4373 52.1492 19.6999L52.1492 21.6693Z" fill="#F48BA2"/>
<path d="M44.1011 14.2192L44.1011 15.5093L45.4504 15.5093L45.4504 16.519L44.1011 16.519L44.1011 17.3404L42.9154 17.3404L42.9154 16.519L42.2904 16.519L42.2904 17.3404L41.1047 17.3404L41.1047 16.519L36.946 16.519L36.946 14.2873C36.946 13.6435 37.1914 13.1293 37.682 12.7447C38.1687 12.36 38.8171 12.1677 39.627 12.1677C40.4525 12.1677 41.1009 12.3507 41.572 12.7166C42.0393 13.0826 42.2788 13.5914 42.2904 14.2432L42.2904 15.5093L42.9154 15.5093L42.9154 14.2192L44.1011 14.2192ZM41.1047 15.5093L41.1047 14.3033C41.1047 13.94 40.9821 13.6622 40.7368 13.4699C40.4915 13.2776 40.1254 13.1814 39.6387 13.1814C39.2026 13.1814 38.8463 13.2762 38.5698 13.4659C38.2933 13.6529 38.1493 13.912 38.1376 14.2432L38.1376 15.5093L41.1047 15.5093Z" fill="#F48BA2"/>
<path d="M55.02 12.5892C55.02 17.0204 49.0389 20.631 41.6224 20.631C34.2059 20.631 28.2249 17.0204 28.2249 12.5892C28.2249 8.15807 34.2059 4.5475 41.6224 4.5475C49.0389 4.5475 55.02 8.15807 55.02 12.5892Z" fill="white"/>
<path d="M41.6224 20.631C34.7801 20.631 29.134 17.5456 28.3205 13.5739C28.2727 13.9022 28.2249 14.2304 28.2249 14.5586C28.2249 18.9898 34.2059 22.6004 41.6224 22.6004C49.0389 22.6004 55.02 18.9898 55.02 14.5586C55.02 14.2304 54.9721 13.9022 54.9243 13.5739C54.1108 17.5456 48.4647 20.631 41.6224 20.631Z" fill="#FFBFCD"/>
<path d="M52.3884 12.5565C52.3884 12.819 52.3884 13.0488 52.3405 13.2786C52.2927 13.4427 52.0534 13.574 51.8142 13.574C51.5749 13.5412 51.3835 13.377 51.3835 13.2129C51.4314 13.016 51.4314 12.819 51.4314 12.5893C51.4314 12.3923 51.6228 12.261 51.9099 12.261C52.197 12.261 52.3884 12.3923 52.3884 12.5565ZM51.862 10.6527C51.862 10.784 51.7663 10.9153 51.5749 10.9481C51.3357 11.0138 51.0486 10.9153 50.9529 10.7512C50.8572 10.5542 50.7137 10.3573 50.5701 10.1932C50.4266 10.0291 50.5223 9.83211 50.7615 9.76647C51.0008 9.668 51.2878 9.73364 51.3835 9.89776C51.5271 10.0947 51.6706 10.3245 51.7663 10.5214C51.862 10.587 51.862 10.6199 51.862 10.6527ZM51.5271 15.0839C51.5271 15.1495 51.5271 15.1823 51.4792 15.248C51.3357 15.4449 51.1443 15.6418 51.0008 15.8388C50.8572 16.0029 50.5701 16.0357 50.3309 15.9373C50.0916 15.8388 50.0438 15.6418 50.1873 15.4777C50.3309 15.3136 50.5223 15.1167 50.618 14.9526C50.7615 14.7884 51.0486 14.7228 51.24 14.8213C51.4314 14.8541 51.5271 14.9854 51.5271 15.0839ZM49.8045 8.48635C49.8045 8.58482 49.7567 8.65047 49.661 8.71612C49.4696 8.84741 49.1825 8.84741 48.9911 8.71612C48.7997 8.58482 48.5605 8.42071 48.3212 8.28941C48.1298 8.19094 48.082 7.96118 48.2734 7.82989C48.4648 7.69859 48.7519 7.66577 48.9433 7.79706C49.1825 7.92836 49.4696 8.09247 49.661 8.25659C49.7567 8.32224 49.8045 8.42071 49.8045 8.48635ZM49.1347 17.0861C49.1347 17.1845 49.0868 17.283 48.9433 17.3487C48.704 17.48 48.4169 17.6441 48.1298 17.7425C47.8906 17.841 47.6035 17.8082 47.46 17.6441C47.3164 17.48 47.3643 17.283 47.6035 17.1845C47.8428 17.0533 48.082 16.9548 48.3212 16.8235C48.5126 16.6922 48.8476 16.725 48.9911 16.8563C49.0868 16.9548 49.1347 17.0204 49.1347 17.0861ZM46.6944 7.04213C46.6944 7.07495 46.6944 7.1406 46.6465 7.17342C46.5508 7.33754 46.2638 7.40318 46.0245 7.33754C45.7374 7.23907 45.4503 7.17342 45.1632 7.10777C44.924 7.04213 44.7805 6.87801 44.8762 6.68107C44.9718 6.51695 45.2111 6.41848 45.4982 6.48413C45.8331 6.54978 46.1202 6.64825 46.4073 6.71389C46.5987 6.81236 46.6944 6.91083 46.6944 7.04213ZM45.8331 18.3662C45.8331 18.4975 45.6896 18.6288 45.4982 18.6616C45.2111 18.7272 44.8762 18.7929 44.5412 18.8585C44.302 18.8914 44.0149 18.7929 43.967 18.6288C43.9192 18.4647 44.0627 18.2677 44.302 18.2349C44.5891 18.1692 44.8762 18.1364 45.1632 18.0708C45.4025 18.0051 45.6896 18.1036 45.7853 18.2677C45.8331 18.2677 45.8331 18.3005 45.8331 18.3662ZM43.0101 6.41848C43.0101 6.45131 43.0101 6.45131 43.0101 6.41848C43.0101 6.61542 42.7708 6.74672 42.4837 6.74672C42.1966 6.74672 41.9096 6.71389 41.6225 6.71389C41.3354 6.71389 41.144 6.5826 41.144 6.38566C41.144 6.18872 41.3354 6.05742 41.6225 6.05742C41.9574 6.05742 42.2445 6.05743 42.5794 6.09025C42.8187 6.12307 43.0101 6.25437 43.0101 6.41848ZM42.1009 18.7601C42.1009 18.957 41.9096 19.0883 41.6225 19.0883C41.2875 19.0883 40.9526 19.0883 40.6655 19.0555C40.4263 19.0555 40.187 18.8914 40.2349 18.6944C40.2349 18.4975 40.4741 18.3662 40.7612 18.399C41.0483 18.399 41.3832 18.4318 41.6703 18.4318C41.9096 18.4318 42.1009 18.596 42.1009 18.7601ZM39.23 6.64825C39.23 6.77954 39.0865 6.94366 38.8473 6.97648C38.5602 7.04213 38.2731 7.07495 37.986 7.1406C37.7467 7.20624 37.4596 7.10777 37.364 6.94366C37.2683 6.77954 37.4118 6.5826 37.651 6.51695C37.9381 6.45131 38.2731 6.38566 38.608 6.32001C38.8473 6.28719 39.1343 6.38566 39.1822 6.54977C39.23 6.5826 39.23 6.61542 39.23 6.64825ZM38.3688 18.3662C38.3688 18.399 38.3688 18.4318 38.3209 18.4647C38.2252 18.6288 37.986 18.7272 37.6989 18.6616C37.4118 18.596 37.0769 18.4975 36.7898 18.4318C36.5505 18.3662 36.4548 18.1692 36.5505 18.0051C36.6462 17.841 36.9333 17.7754 37.1726 17.841C37.4596 17.9395 37.7467 18.0051 38.0338 18.0708C38.2731 18.1036 38.3688 18.2349 38.3688 18.3662ZM35.785 7.69859C35.785 7.79706 35.6893 7.89553 35.5936 7.96118C35.3543 8.09247 35.1151 8.19094 34.8758 8.32224C34.6844 8.45353 34.3495 8.42071 34.206 8.28942C34.0146 8.15812 34.0624 7.92836 34.2538 7.82989C34.493 7.69859 34.7801 7.53448 35.0672 7.43601C35.3065 7.33754 35.5936 7.37036 35.7371 7.53448C35.785 7.5673 35.785 7.63295 35.785 7.69859ZM35.0672 17.1189C35.0672 17.1845 35.0194 17.2502 34.9715 17.3158C34.828 17.4471 34.493 17.48 34.3017 17.3487C34.0624 17.2174 33.7753 17.0533 33.5839 16.8891C33.3925 16.7578 33.3925 16.5609 33.5839 16.4296C33.7753 16.2983 34.0624 16.2983 34.2538 16.4296C34.4452 16.5609 34.6844 16.725 34.9237 16.8563C35.0194 16.922 35.0672 17.0204 35.0672 17.1189ZM33.1533 9.5367C33.1533 9.60235 33.1054 9.668 33.0576 9.70082C32.914 9.86494 32.7227 10.0619 32.627 10.226C32.5313 10.3901 32.1963 10.4558 32.0049 10.3573C31.7657 10.2916 31.67 10.0947 31.8135 9.93058C31.9571 9.73364 32.1485 9.5367 32.292 9.33976C32.4356 9.17564 32.7227 9.14282 32.9619 9.24129C33.0576 9.30694 33.1533 9.43823 33.1533 9.5367ZM32.6748 15.1167C32.6748 15.248 32.5791 15.3464 32.4356 15.4121C32.1963 15.5106 31.9092 15.4449 31.8135 15.2808C31.67 15.0839 31.5264 14.8541 31.4307 14.6571C31.3351 14.493 31.4786 14.2961 31.7178 14.2304C31.9571 14.1648 32.2442 14.2633 32.3399 14.4274C32.4356 14.6243 32.5791 14.8213 32.7227 14.9854C32.6748 15.0182 32.6748 15.051 32.6748 15.1167ZM31.8614 11.9656L31.8614 11.9985C31.8135 12.1954 31.8135 12.3923 31.8135 12.5893C31.8135 12.7862 31.6221 12.9175 31.3351 12.9175C31.048 12.9175 30.8566 12.7862 30.8566 12.5893C30.8566 12.3595 30.8566 12.1297 30.9044 11.9328C30.9523 11.7687 31.1915 11.6374 31.4307 11.6374C31.67 11.6374 31.8614 11.8015 31.8614 11.9656Z" fill="#FFBFCD"/>
<path d="M42.101 20.631L42.101 22.6004C42.4359 22.6004 42.723 22.5675 43.0579 22.5675L43.0579 20.5981C42.723 20.5981 42.4359 20.631 42.101 20.631Z" fill="#F48BA2"/>
<path d="M39.7085 20.5653L39.7085 22.5347C40.0434 22.5675 40.3305 22.5675 40.6655 22.6004L40.6655 20.631C40.3305 20.5981 40.0434 20.5981 39.7085 20.5653Z" fill="#F48BA2"/>
<path d="M44.4934 20.4669L44.4934 22.4363C44.8283 22.4035 45.1154 22.3378 45.4504 22.2722L45.4504 20.3028C45.1154 20.3684 44.8283 20.4012 44.4934 20.4669Z" fill="#F48BA2"/>
<path d="M46.8857 20.0074L46.8857 21.9768C47.2207 21.8784 47.5078 21.8127 47.8427 21.7142L47.8427 19.7448C47.5078 19.8105 47.2207 19.9089 46.8857 20.0074Z" fill="#F48BA2"/>
<path d="M37.3162 20.2044L37.3162 22.1738C37.6511 22.2394 37.9382 22.3051 38.2731 22.3379L38.2731 20.3685C37.9382 20.3357 37.6511 20.27 37.3162 20.2044Z" fill="#F48BA2"/>
<path d="M34.9237 19.5478L34.9237 21.5172C35.2586 21.6157 35.5457 21.7142 35.8807 21.8126L35.8807 19.8432C35.5457 19.7776 35.2586 19.6791 34.9237 19.5478Z" fill="#F48BA2"/>
<path d="M32.0527 18.2349L32.0527 20.2043C32.3398 20.4012 32.6748 20.5653 33.0097 20.7295L33.0097 18.7601C32.6748 18.5959 32.3398 18.399 32.0527 18.2349Z" fill="#F48BA2"/>
<path d="M29.6604 16.1999L29.6604 18.1693C29.9475 18.4975 30.2824 18.8257 30.6174 19.1211L30.6174 17.1517C30.2824 16.8563 29.9475 16.5609 29.6604 16.1999Z" fill="#F48BA2"/>
<path d="M49.7567 18.9899L49.7567 20.9593C50.0917 20.7952 50.4266 20.6311 50.7137 20.467L50.7137 18.4976C50.4266 18.6617 50.0917 18.8258 49.7567 18.9899Z" fill="#F48BA2"/>
<path d="M52.1492 19.5478C52.4841 19.2852 52.819 19.0226 53.1061 18.7272L53.1061 16.7578C52.819 17.0532 52.4841 17.3158 52.1492 17.5784L52.1492 19.5478Z" fill="#F48BA2"/>
<path d="M44.1011 12.0978L44.1011 13.3879L45.4504 13.3879L45.4504 14.3976L44.1011 14.3976L44.1011 15.219L42.9154 15.219L42.9154 14.3976L42.2904 14.3976L42.2904 15.219L41.1047 15.219L41.1047 14.3976L36.946 14.3976L36.946 12.1659C36.946 11.5221 37.1914 11.0079 37.682 10.6233C38.1687 10.2386 38.8171 10.0463 39.627 10.0463C40.4525 10.0463 41.1009 10.2293 41.572 10.5952C42.0393 10.9612 42.2788 11.47 42.2904 12.1218L42.2904 13.3879L42.9154 13.3879L42.9154 12.0978L44.1011 12.0978ZM41.1047 13.3879L41.1047 12.1819C41.1047 11.8186 40.9821 11.5408 40.7368 11.3485C40.4915 11.1562 40.1254 11.06 39.6387 11.06C39.2026 11.06 38.8463 11.1548 38.5698 11.3445C38.2933 11.5315 38.1493 11.7906 38.1376 12.1218L38.1376 13.3879L41.1047 13.3879Z" fill="#F48BA2"/>
<path d="M55.02 10.4592C55.02 14.8904 49.0389 18.5009 41.6224 18.5009C34.2059 18.5009 28.2249 14.8904 28.2249 10.4592C28.2249 6.02805 34.2059 2.41748 41.6224 2.41748C49.0389 2.41748 55.02 6.02805 55.02 10.4592Z" fill="white"/>
<path d="M41.6224 18.5009C34.7801 18.5009 29.134 15.4155 28.3205 11.4439C28.2727 11.7721 28.2249 12.1004 28.2249 12.4286C28.2249 16.8598 34.2059 20.4703 41.6224 20.4703C49.0389 20.4703 55.02 16.8598 55.02 12.4286C55.02 12.1004 54.9721 11.7721 54.9243 11.4439C54.1108 15.4155 48.4647 18.5009 41.6224 18.5009Z" fill="#FFBFCD"/>
<path d="M52.3884 10.4264C52.3884 10.689 52.3884 10.9188 52.3405 11.1485C52.2927 11.3127 52.0534 11.444 51.8142 11.444C51.5749 11.4111 51.3835 11.247 51.3835 11.0829C51.4314 10.886 51.4314 10.689 51.4314 10.4593C51.4314 10.2623 51.6228 10.131 51.9099 10.131C52.197 10.131 52.3884 10.2623 52.3884 10.4264ZM51.862 8.52268C51.862 8.65397 51.7663 8.78526 51.5749 8.81809C51.3357 8.88373 51.0486 8.78526 50.9529 8.62115C50.8572 8.42421 50.7137 8.22727 50.5701 8.06315C50.4266 7.89903 50.5223 7.70209 50.7615 7.63645C51.0008 7.53798 51.2878 7.60362 51.3835 7.76774C51.5271 7.96468 51.6706 8.19444 51.7663 8.39138C51.862 8.45703 51.862 8.48985 51.862 8.52268ZM51.5271 12.9538C51.5271 13.0195 51.5271 13.0523 51.4792 13.1179C51.3357 13.3149 51.1443 13.5118 51.0008 13.7088C50.8572 13.8729 50.5701 13.9057 50.3309 13.8072C50.0916 13.7088 50.0438 13.5118 50.1873 13.3477C50.3309 13.1836 50.5223 12.9867 50.618 12.8225C50.7615 12.6584 51.0486 12.5928 51.24 12.6912C51.4314 12.7241 51.5271 12.8554 51.5271 12.9538ZM49.8045 6.35633C49.8045 6.4548 49.7567 6.52045 49.661 6.5861C49.4696 6.71739 49.1825 6.71739 48.9911 6.5861C48.7997 6.4548 48.5605 6.29069 48.3212 6.15939C48.1298 6.06092 48.082 5.83116 48.2734 5.69987C48.4648 5.56857 48.7519 5.53575 48.9433 5.66704C49.1825 5.79834 49.4696 5.96245 49.661 6.12657C49.7567 6.19222 49.8045 6.29069 49.8045 6.35633ZM49.1347 14.9561C49.1347 15.0545 49.0868 15.153 48.9433 15.2186C48.704 15.3499 48.4169 15.5141 48.1298 15.6125C47.8906 15.711 47.6035 15.6782 47.46 15.5141C47.3164 15.3499 47.3643 15.153 47.6035 15.0545C47.8428 14.9232 48.082 14.8248 48.3212 14.6935C48.5126 14.5622 48.8476 14.595 48.9911 14.7263C49.0868 14.8248 49.1347 14.8904 49.1347 14.9561ZM46.6944 4.91211C46.6944 4.94493 46.6944 5.01058 46.6465 5.0434C46.5508 5.20752 46.2638 5.27316 46.0245 5.20752C45.7374 5.10905 45.4503 5.0434 45.1632 4.97775C44.924 4.91211 44.7805 4.74799 44.8762 4.55105C44.9718 4.38693 45.2111 4.28846 45.4982 4.35411C45.8331 4.41976 46.1202 4.51823 46.4073 4.58387C46.5987 4.68234 46.6944 4.78081 46.6944 4.91211ZM45.8331 16.2362C45.8331 16.3675 45.6896 16.4988 45.4982 16.5316C45.2111 16.5972 44.8762 16.6629 44.5412 16.7285C44.302 16.7613 44.0149 16.6629 43.967 16.4988C43.9192 16.3346 44.0627 16.1377 44.302 16.1049C44.5891 16.0392 44.8762 16.0064 45.1632 15.9408C45.4025 15.8751 45.6896 15.9736 45.7853 16.1377C45.8331 16.1377 45.8331 16.1705 45.8331 16.2362ZM43.0101 4.28846C43.0101 4.32129 43.0101 4.32129 43.0101 4.28846C43.0101 4.4854 42.7708 4.6167 42.4837 4.6167C42.1966 4.6167 41.9096 4.58387 41.6225 4.58387C41.3354 4.58387 41.144 4.45258 41.144 4.25564C41.144 4.0587 41.3354 3.9274 41.6225 3.9274C41.9574 3.9274 42.2445 3.92741 42.5794 3.96023C42.8187 3.99305 43.0101 4.12435 43.0101 4.28846ZM42.1009 16.63C42.1009 16.827 41.9096 16.9583 41.6225 16.9583C41.2875 16.9583 40.9526 16.9583 40.6655 16.9255C40.4263 16.9255 40.187 16.7613 40.2349 16.5644C40.2349 16.3675 40.4741 16.2362 40.7612 16.269C41.0483 16.269 41.3832 16.3018 41.6703 16.3018C41.9096 16.3018 42.1009 16.4659 42.1009 16.63ZM39.23 4.51823C39.23 4.64952 39.0865 4.81364 38.8473 4.84646C38.5602 4.91211 38.2731 4.94493 37.986 5.01058C37.7467 5.07622 37.4596 4.97775 37.364 4.81364C37.2683 4.64952 37.4118 4.45258 37.651 4.38693C37.9381 4.32129 38.2731 4.25564 38.608 4.18999C38.8473 4.15717 39.1343 4.25564 39.1822 4.41975C39.23 4.45258 39.23 4.4854 39.23 4.51823ZM38.3688 16.2362C38.3688 16.269 38.3688 16.3018 38.3209 16.3346C38.2252 16.4988 37.986 16.5972 37.6989 16.5316C37.4118 16.4659 37.0769 16.3675 36.7898 16.3018C36.5505 16.2362 36.4548 16.0392 36.5505 15.8751C36.6462 15.711 36.9333 15.6453 37.1726 15.711C37.4596 15.8095 37.7467 15.8751 38.0338 15.9408C38.2731 15.9736 38.3688 16.1049 38.3688 16.2362ZM35.785 5.56857C35.785 5.66704 35.6893 5.76551 35.5936 5.83116C35.3543 5.96245 35.1151 6.06092 34.8758 6.19222C34.6844 6.32351 34.3495 6.29069 34.206 6.1594C34.0146 6.0281 34.0624 5.79834 34.2538 5.69987C34.493 5.56857 34.7801 5.40446 35.0672 5.30599C35.3065 5.20752 35.5936 5.24034 35.7371 5.40446C35.785 5.43728 35.785 5.50293 35.785 5.56857ZM35.0672 14.9889C35.0672 15.0545 35.0194 15.1202 34.9715 15.1858C34.828 15.3171 34.493 15.3499 34.3017 15.2186C34.0624 15.0874 33.7753 14.9232 33.5839 14.7591C33.3925 14.6278 33.3925 14.4309 33.5839 14.2996C33.7753 14.1683 34.0624 14.1683 34.2538 14.2996C34.4452 14.4309 34.6844 14.595 34.9237 14.7263C35.0194 14.7919 35.0672 14.8904 35.0672 14.9889ZM33.1533 7.40668C33.1533 7.47233 33.1054 7.53798 33.0576 7.5708C32.914 7.73492 32.7227 7.93186 32.627 8.09597C32.5313 8.26009 32.1963 8.32574 32.0049 8.22727C31.7657 8.16162 31.67 7.96468 31.8135 7.80056C31.9571 7.60362 32.1485 7.40668 32.292 7.20974C32.4356 7.04562 32.7227 7.0128 32.9619 7.11127C33.0576 7.17692 33.1533 7.30821 33.1533 7.40668ZM32.6748 12.9867C32.6748 13.1179 32.5791 13.2164 32.4356 13.2821C32.1963 13.3805 31.9092 13.3149 31.8135 13.1508C31.67 12.9538 31.5264 12.7241 31.4307 12.5271C31.3351 12.363 31.4786 12.1661 31.7178 12.1004C31.9571 12.0348 32.2442 12.1332 32.3399 12.2974C32.4356 12.4943 32.5791 12.6912 32.7227 12.8554C32.6748 12.8882 32.6748 12.921 32.6748 12.9867ZM31.8614 9.83561L31.8614 9.86844C31.8135 10.0654 31.8135 10.2623 31.8135 10.4593C31.8135 10.6562 31.6221 10.7875 31.3351 10.7875C31.048 10.7875 30.8566 10.6562 30.8566 10.4593C30.8566 10.2295 30.8566 9.99973 30.9044 9.80279C30.9523 9.63867 31.1915 9.50738 31.4307 9.50738C31.67 9.50738 31.8614 9.67149 31.8614 9.83561Z" fill="#FFBFCD"/>
<path d="M42.101 18.501L42.101 20.4704C42.4359 20.4704 42.723 20.4375 43.0579 20.4375L43.0579 18.4681C42.723 18.4681 42.4359 18.501 42.101 18.501Z" fill="#F48BA2"/>
<path d="M39.7085 18.4353L39.7085 20.4047C40.0434 20.4375 40.3305 20.4375 40.6655 20.4704L40.6655 18.5009C40.3305 18.4681 40.0434 18.4681 39.7085 18.4353Z" fill="#F48BA2"/>
<path d="M44.4934 18.337L44.4934 20.3064C44.8283 20.2736 45.1154 20.2079 45.4504 20.1423L45.4504 18.1729C45.1154 18.2385 44.8283 18.2714 44.4934 18.337Z" fill="#F48BA2"/>
<path d="M46.8857 17.8773L46.8857 19.8467C47.2207 19.7482 47.5078 19.6826 47.8427 19.5841L47.8427 17.6147C47.5078 17.6803 47.2207 17.7788 46.8857 17.8773Z" fill="#F48BA2"/>
<path d="M37.3162 18.0743L37.3162 20.0437C37.6511 20.1093 37.9382 20.175 38.2731 20.2078L38.2731 18.2384C37.9382 18.2056 37.6511 18.1399 37.3162 18.0743Z" fill="#F48BA2"/>
<path d="M34.9237 17.4178L34.9237 19.3872C35.2586 19.4857 35.5457 19.5841 35.8807 19.6826L35.8807 17.7132C35.5457 17.6476 35.2586 17.5491 34.9237 17.4178Z" fill="#F48BA2"/>
<path d="M32.0527 16.1049L32.0527 18.0743C32.3398 18.2712 32.6748 18.4353 33.0097 18.5994L33.0097 16.63C32.6748 16.4659 32.3398 16.269 32.0527 16.1049Z" fill="#F48BA2"/>
<path d="M29.6604 14.0698L29.6604 16.0392C29.9475 16.3675 30.2824 16.6957 30.6174 16.9911L30.6174 15.0217C30.2824 14.7263 29.9475 14.4309 29.6604 14.0698Z" fill="#F48BA2"/>
<path d="M49.7567 16.8598L49.7567 18.8292C50.0917 18.6651 50.4266 18.501 50.7137 18.3368L50.7137 16.3674C50.4266 16.5316 50.0917 16.6957 49.7567 16.8598Z" fill="#F48BA2"/>
<path d="M52.1492 17.4179C52.4841 17.1553 52.819 16.8927 53.1061 16.5973L53.1061 14.6279C52.819 14.9233 52.4841 15.1859 52.1492 15.4485L52.1492 17.4179Z" fill="#F48BA2"/>
<path d="M44.1011 9.96775L44.1011 11.2579L45.4504 11.2579L45.4504 12.2676L44.1011 12.2676L44.1011 13.089L42.9154 13.089L42.9154 12.2676L42.2904 12.2676L42.2904 13.089L41.1047 13.089L41.1047 12.2676L36.946 12.2676L36.946 10.0359C36.946 9.39212 37.1914 8.87792 37.682 8.49327C38.1687 8.10862 38.8171 7.91629 39.627 7.91629C40.4525 7.91629 41.1009 8.09927 41.572 8.46522C42.0393 8.83117 42.2788 9.34003 42.2904 9.99179L42.2904 11.2579L42.9154 11.2579L42.9154 9.96775L44.1011 9.96775ZM41.1047 11.2579L41.1047 10.0519C41.1047 9.68862 40.9821 9.41081 40.7368 9.21849C40.4915 9.02617 40.1254 8.93 39.6387 8.93C39.2026 8.93 38.8463 9.02483 38.5698 9.21448C38.2933 9.40147 38.1493 9.66057 38.1376 9.99179L38.1376 11.2579L41.1047 11.2579Z" fill="#F48BA2"/>
<path d="M55.02 8.33762C55.02 12.7688 49.0389 16.3793 41.6224 16.3793C34.2059 16.3793 28.2249 12.7688 28.2249 8.33762C28.2249 3.90647 34.2059 0.295894 41.6224 0.295894C49.0389 0.295894 55.02 3.90646 55.02 8.33762Z" fill="#FFDCE4"/>
<path d="M41.6224 16.3794C34.7801 16.3794 29.134 13.294 28.3205 9.3224C28.2727 9.65064 28.2249 9.97887 28.2249 10.3071C28.2249 14.7383 34.2059 18.3488 41.6224 18.3488C49.0389 18.3488 55.02 14.7383 55.02 10.3071C55.02 9.97887 54.9721 9.65064 54.9243 9.3224C54.1108 13.294 48.4647 16.3794 41.6224 16.3794Z" fill="#FFBFCD"/>
<path d="M52.3884 8.30485C52.3884 8.56744 52.3884 8.7972 52.3405 9.02696C52.2927 9.19108 52.0534 9.32237 51.8142 9.32237C51.5749 9.28955 51.3835 9.12543 51.3835 8.96132C51.4314 8.76438 51.4314 8.56744 51.4314 8.33767C51.4314 8.14073 51.6228 8.00944 51.9099 8.00944C52.197 8.00944 52.3884 8.14073 52.3884 8.30485ZM51.862 6.40109C51.862 6.53239 51.7663 6.66368 51.5749 6.6965C51.3357 6.76215 51.0486 6.66368 50.9529 6.49956C50.8572 6.30263 50.7137 6.10568 50.5701 5.94157C50.4266 5.77745 50.5223 5.58051 50.7615 5.51486C51.0008 5.41639 51.2878 5.48204 51.3835 5.64616C51.5271 5.8431 51.6706 6.07286 51.7663 6.2698C51.862 6.33545 51.862 6.36827 51.862 6.40109ZM51.5271 10.8322C51.5271 10.8979 51.5271 10.9307 51.4792 10.9964C51.3357 11.1933 51.1443 11.3902 51.0008 11.5872C50.8572 11.7513 50.5701 11.7841 50.3309 11.6857C50.0916 11.5872 50.0438 11.3902 50.1873 11.2261C50.3309 11.062 50.5223 10.8651 50.618 10.701C50.7615 10.5368 51.0486 10.4712 51.24 10.5697C51.4314 10.6025 51.5271 10.7338 51.5271 10.8322ZM49.8045 4.23475C49.8045 4.33322 49.7567 4.39887 49.661 4.46452C49.4696 4.59581 49.1825 4.59581 48.9911 4.46452C48.7997 4.33322 48.5605 4.16911 48.3212 4.03781C48.1298 3.93934 48.082 3.70958 48.2734 3.57828C48.4648 3.44699 48.7519 3.41417 48.9433 3.54546C49.1825 3.67676 49.4696 3.84087 49.661 4.00499C49.7567 4.07064 49.8045 4.1691 49.8045 4.23475ZM49.1347 12.8345C49.1347 12.9329 49.0868 13.0314 48.9433 13.0971C48.704 13.2284 48.4169 13.3925 48.1298 13.4909C47.8906 13.5894 47.6035 13.5566 47.46 13.3925C47.3164 13.2284 47.3643 13.0314 47.6035 12.9329C47.8428 12.8017 48.082 12.7032 48.3212 12.5719C48.5126 12.4406 48.8476 12.4734 48.9911 12.6047C49.0868 12.7032 49.1347 12.7688 49.1347 12.8345ZM46.6944 2.79052C46.6944 2.82335 46.6944 2.88899 46.6465 2.92182C46.5508 3.08593 46.2638 3.15158 46.0245 3.08593C45.7374 2.98746 45.4503 2.92182 45.1632 2.85617C44.924 2.79052 44.7805 2.62641 44.8762 2.42947C44.9718 2.26535 45.2111 2.16688 45.4982 2.23253C45.8331 2.29817 46.1202 2.39664 46.4073 2.46229C46.5987 2.56076 46.6944 2.65923 46.6944 2.79052ZM45.8331 14.1146C45.8331 14.2459 45.6896 14.3772 45.4982 14.41C45.2111 14.4756 44.8762 14.5413 44.5412 14.6069C44.302 14.6398 44.0149 14.5413 43.967 14.3772C43.9192 14.2131 44.0627 14.0161 44.302 13.9833C44.5891 13.9176 44.8762 13.8848 45.1632 13.8192C45.4025 13.7535 45.6896 13.852 45.7853 14.0161C45.8331 14.0161 45.8331 14.0489 45.8331 14.1146ZM43.0101 2.16688C43.0101 2.1997 43.0101 2.1997 43.0101 2.16688C43.0101 2.36382 42.7708 2.49511 42.4837 2.49511C42.1966 2.49511 41.9096 2.46229 41.6225 2.46229C41.3354 2.46229 41.144 2.331 41.144 2.13406C41.144 1.93712 41.3354 1.80582 41.6225 1.80582C41.9574 1.80582 42.2445 1.80582 42.5794 1.83865C42.8187 1.87147 43.0101 2.00276 43.0101 2.16688ZM42.1009 14.5085C42.1009 14.7054 41.9096 14.8367 41.6225 14.8367C41.2875 14.8367 40.9526 14.8367 40.6655 14.8039C40.4263 14.8039 40.187 14.6398 40.2349 14.4428C40.2349 14.2459 40.4741 14.1146 40.7612 14.1474C41.0483 14.1474 41.3832 14.1802 41.6703 14.1802C41.9096 14.1802 42.1009 14.3443 42.1009 14.5085ZM39.23 2.39664C39.23 2.52794 39.0865 2.69205 38.8473 2.72488C38.5602 2.79052 38.2731 2.82335 37.986 2.88899C37.7467 2.95464 37.4596 2.85617 37.364 2.69205C37.2683 2.52794 37.4118 2.331 37.651 2.26535C37.9381 2.1997 38.2731 2.13406 38.608 2.06841C38.8473 2.03559 39.1343 2.13406 39.1822 2.29817C39.23 2.331 39.23 2.36382 39.23 2.39664ZM38.3688 14.1146C38.3688 14.1474 38.3688 14.1802 38.3209 14.2131C38.2252 14.3772 37.986 14.4756 37.6989 14.41C37.4118 14.3443 37.0769 14.2459 36.7898 14.1802C36.5505 14.1146 36.4548 13.9176 36.5505 13.7535C36.6462 13.5894 36.9333 13.5238 37.1726 13.5894C37.4596 13.6879 37.7467 13.7535 38.0338 13.8192C38.2731 13.852 38.3688 13.9833 38.3688 14.1146ZM35.785 3.44699C35.785 3.54546 35.6893 3.64393 35.5936 3.70958C35.3543 3.84087 35.1151 3.93934 34.8758 4.07064C34.6844 4.20193 34.3495 4.16911 34.206 4.03781C34.0146 3.90652 34.0624 3.67675 34.2538 3.57829C34.493 3.44699 34.7801 3.28287 35.0672 3.1844C35.3065 3.08593 35.5936 3.11876 35.7371 3.28287C35.785 3.3157 35.785 3.38134 35.785 3.44699ZM35.0672 12.8673C35.0672 12.9329 35.0194 12.9986 34.9715 13.0642C34.828 13.1955 34.493 13.2284 34.3017 13.0971C34.0624 12.9658 33.7753 12.8017 33.5839 12.6375C33.3925 12.5062 33.3925 12.3093 33.5839 12.178C33.7753 12.0467 34.0624 12.0467 34.2538 12.178C34.4452 12.3093 34.6844 12.4734 34.9237 12.6047C35.0194 12.6704 35.0672 12.7688 35.0672 12.8673ZM33.1533 5.2851C33.1533 5.35075 33.1054 5.41639 33.0576 5.44922C32.914 5.61333 32.7227 5.81027 32.627 5.97439C32.5313 6.13851 32.1963 6.20415 32.0049 6.10569C31.7657 6.04004 31.67 5.8431 31.8135 5.67898C31.9571 5.48204 32.1485 5.2851 32.292 5.08816C32.4356 4.92404 32.7227 4.89122 32.9619 4.98969C33.0576 5.05534 33.1533 5.18663 33.1533 5.2851ZM32.6748 10.8651C32.6748 10.9964 32.5791 11.0948 32.4356 11.1605C32.1963 11.259 31.9092 11.1933 31.8135 11.0292C31.67 10.8322 31.5264 10.6025 31.4307 10.4055C31.3351 10.2414 31.4786 10.0445 31.7178 9.97884C31.9571 9.9132 32.2442 10.0117 32.3399 10.1758C32.4356 10.3727 32.5791 10.5697 32.7227 10.7338C32.6748 10.7666 32.6748 10.7994 32.6748 10.8651ZM31.8614 7.71403L31.8614 7.74685C31.8135 7.94379 31.8135 8.14073 31.8135 8.33767C31.8135 8.53461 31.6221 8.66591 31.3351 8.66591C31.048 8.66591 30.8566 8.53461 30.8566 8.33767C30.8566 8.10791 30.8566 7.87815 30.9044 7.68121C30.9523 7.51709 31.1915 7.3858 31.4307 7.3858C31.67 7.3858 31.8614 7.54991 31.8614 7.71403Z" fill="#FFBFCD"/>
<path d="M42.101 16.3794L42.101 18.3488C42.4359 18.3488 42.723 18.316 43.0579 18.316L43.0579 16.3466C42.723 16.3466 42.4359 16.3794 42.101 16.3794Z" fill="#F48BA2"/>
<path d="M39.7085 16.3137L39.7085 18.2831C40.0434 18.316 40.3305 18.316 40.6655 18.3488L40.6655 16.3794C40.3305 16.3466 40.0434 16.3466 39.7085 16.3137Z" fill="#F48BA2"/>
<path d="M44.4934 16.2152L44.4934 18.1846C44.8283 18.1518 45.1154 18.0861 45.4504 18.0205L45.4504 16.0511C45.1154 16.1167 44.8283 16.1495 44.4934 16.2152Z" fill="#F48BA2"/>
<path d="M46.8857 15.7557L46.8857 17.7251C47.2207 17.6266 47.5078 17.561 47.8427 17.4625L47.8427 15.4931C47.5078 15.5588 47.2207 15.6572 46.8857 15.7557Z" fill="#F48BA2"/>
<path d="M37.3162 15.9527L37.3162 17.9221C37.6511 17.9877 37.9382 18.0534 38.2731 18.0862L38.2731 16.1168C37.9382 16.084 37.6511 16.0183 37.3162 15.9527Z" fill="#F48BA2"/>
<path d="M34.9237 15.2962L34.9237 17.2656C35.2586 17.3641 35.5457 17.4626 35.8807 17.561L35.8807 15.5916C35.5457 15.526 35.2586 15.4275 34.9237 15.2962Z" fill="#F48BA2"/>
<path d="M32.0527 13.9832L32.0527 15.9526C32.3398 16.1495 32.6748 16.3136 33.0097 16.4778L33.0097 14.5084C32.6748 14.3442 32.3398 14.1473 32.0527 13.9832Z" fill="#F48BA2"/>
<path d="M29.6604 11.9483L29.6604 13.9177C29.9475 14.2459 30.2824 14.5741 30.6174 14.8696L30.6174 12.9002C30.2824 12.6047 29.9475 12.3093 29.6604 11.9483Z" fill="#F48BA2"/>
<path d="M49.7567 14.7382L49.7567 16.7076C50.0917 16.5435 50.4266 16.3794 50.7137 16.2153L50.7137 14.2459C50.4266 14.41 50.0917 14.5741 49.7567 14.7382Z" fill="#F48BA2"/>
<path d="M52.1492 15.2961C52.4841 15.0335 52.819 14.7709 53.1061 14.4755L53.1061 12.5061C52.819 12.8015 52.4841 13.0641 52.1492 13.3267L52.1492 15.2961Z" fill="#F48BA2"/>
<path d="M44.1011 7.84617L44.1011 9.13635L45.4504 9.13635L45.4504 10.1461L44.1011 10.1461L44.1011 10.9674L42.9154 10.9674L42.9154 10.1461L42.2904 10.1461L42.2904 10.9674L41.1047 10.9674L41.1047 10.1461L36.946 10.1461L36.946 7.91429C36.946 7.27053 37.1914 6.75633 37.682 6.37168C38.1687 5.98704 38.8171 5.79471 39.627 5.79471C40.4525 5.79471 41.1009 5.97769 41.572 6.34364C42.0393 6.70959 42.2788 7.21845 42.2904 7.87021L42.2904 9.13635L42.9154 9.13635L42.9154 7.84617L44.1011 7.84617ZM41.1047 9.13635L41.1047 7.93031C41.1047 7.56703 40.9821 7.28923 40.7368 7.09691C40.4915 6.90458 40.1254 6.80842 39.6387 6.80842C39.2026 6.80842 38.8463 6.90325 38.5698 7.0929C38.2933 7.27988 38.1493 7.53899 38.1376 7.87021L38.1376 9.13635L41.1047 9.13635Z" fill="#F48BA2"/>
</svg>
