<svg width="75" height="98" viewBox="0 0 75 98" fill="none" xmlns="http://www.w3.org/2000/svg" id="Money3">
<path d="M75 77.2586L17 98V36.7414L75 16V77.2586Z" fill="#FFBFCD"/>
<path d="M23 53L49.5 43.5M37 73L63.5 63.5" stroke="#F1AABA"/>
<path d="M0 20.5176L16.7206 37L75 16.4824L58.2794 0L0 20.5176Z" fill="#FFDCE4"/>
<path d="M17 98V37.4654L0 21V81.5346L17 98Z" fill="#E492A4"/>
<path d="M10.5 67L16.5 71V69.5L10.5 67Z" fill="#DC8094"/>
<path d="M7.5 41.5L0 35V37.5L7.5 41.5Z" fill="#DC8094"/>
<path d="M10.5 83L0 72.5V74.5L10.5 83Z" fill="#DC8094"/>
<ellipse cx="38" cy="18" rx="10" ry="6" fill="#FFBFCD"/>
<ellipse cx="56.5" cy="11.5" rx="2.5" ry="1.5" fill="#FFBFCD"/>
<ellipse cx="19.5" cy="24.5" rx="2.5" ry="1.5" fill="#FFBFCD"/>
<path d="M36 36L17 41.5V43L36 36Z" fill="#F1AABA"/>
<path d="M36 85L17 90.5V92L36 85Z" fill="#F1AABA"/>
<path d="M25.5 67L17 69.5V71L25.5 67Z" fill="#F1AABA"/>
<path d="M52 49.5L17 61.6429V63L52 49.5Z" fill="#F1AABA"/>
<path d="M58 41L74.5 36.3571L74.5 34.9999L58 41Z" fill="#F1AABA"/>
</svg>
