<svg width="75" height="68" viewBox="0 0 75 68" fill="none" xmlns="http://www.w3.org/2000/svg" id="Money3">
<path d="M75 47.2586L17 68V36.7414L75 16V47.2586Z" fill="#FFBFCD"/>
<path d="M37 43L63.5 33.5" stroke="#F1AABA"/>
<path d="M0 20.5176L16.7206 37L75 16.4824L58.2794 0L0 20.5176Z" fill="#FFDCE4"/>
<path d="M17 68V37.4654L8.5 29.2327L0 21V51.5346L17 68Z" fill="#E492A4"/>
<path d="M10.5 40L16.5 44V42.5L10.5 40Z" fill="#DC8094"/>
<path d="M10.5 53L0 42.5V44.5L10.5 53Z" fill="#DC8094"/>
<ellipse cx="38" cy="18" rx="10" ry="6" fill="#FFBFCD"/>
<ellipse cx="56.5" cy="11.5" rx="2.5" ry="1.5" fill="#FFBFCD"/>
<ellipse cx="19.5" cy="24.5" rx="2.5" ry="1.5" fill="#FFBFCD"/>
<path d="M36 55L17 60.5V62L36 55Z" fill="#F1AABA"/>
<path d="M25.5 40L17 42.5V44L25.5 40Z" fill="#F1AABA"/>
</svg>
