<svg id="Capa_1" enable-background="new 0 0 512 512" height="512" viewBox="0 0 512 512" width="512" xmlns="http://www.w3.org/2000/svg"><g><path d="m492.606 30.57h-49.106v-14.999h22.5v-15h-60v15h22.5v14.999h-105v-14.999h22.5v-15h-60v15h22.5v14.999h-105v-14.999h22.5v-15h-60v15h22.5v14.999h-105v-14.999h22.5v-15h-60.001v15h22.501v14.999h-49.106l-19.394 19.394v295.788l19.394 19.394h157.106v45h42v56.283h15v-56.283h45v86.283h-45v-15h-15v15h-72v15h72 7.5 60 7.5 42v-15h-42v-86.283h42v-45h116.5v-15h-426.394l-10.606-10.607v-283.362l10.606-10.607h460.787l10.607 10.607v283.362l-10.606 10.606h-19.393v15h25.605l19.394-19.393v-295.788zm-172.106 364.576h-129v-30h129z"/><path d="m45 320.146h422v-244.576h-422zm15-229.576h392v214.575h-392z"/><path d="m109.75 257.857h45v15h-45z"/><path d="m169.751 257.857h15v15h-15z"/><path d="m109.75 227.857h75.001v15h-75.001z"/><path d="m139.751 197.858h45v15h-45z"/><path d="m109.75 197.858h15.001v15h-15.001z"/><path d="m109.751 182.858h75v-60h-75zm15-45h45v30h-45z"/><path d="m409.75 168.502-34.394-34.394h-55.606v119.999h55.606l34.394-34.394zm-15 44.999-25.606 25.606h-34.394v-89.999h34.394l25.606 25.606z"/><path d="m272.328 134.108h-25.156l-32.422 81.055v38.944h15v-30h59.999l.001 30h15l-.001-38.944zm-15 15h4.844l24 59.999h-52.844z"/><path d="m422.001 275.146h-37.5v15h52.5v-30h-15z"/><path d="m354.501 275.146h15v15h-15z"/><path d="m74.999 105.57h15v15h-15z"/><path d="m350.5 496.429h15v15h-15z"/></g></svg>