<?xml version="1.0"?>
<svg xmlns="http://www.w3.org/2000/svg" viewBox="0 0 512 512" width="512" height="512"><g id="Book-2" data-name="Book"><path d="M136,288H304a8,8,0,0,0,6.86-12.116l-48-80a8,8,0,0,0-13.72,0L240,211.12l-29.14-48.566a8,8,0,0,0-13.72,0l-68,113.33A8,8,0,0,0,136,288Zm120-72.45L289.87,272H276.53l-27.2-45.332Zm-52-33.331L257.87,272H150.13Z"/><path d="M292,184a28,28,0,1,0-28-28A28.032,28.032,0,0,0,292,184Zm0-40a12,12,0,1,1-12,12A12.013,12.013,0,0,1,292,144Z"/><path d="M136,320H312a8,8,0,0,0,0-16H136a8,8,0,0,0,0,16Z"/><path d="M136,344H280a8,8,0,0,0,0-16H136a8,8,0,0,0,0,16Z"/><path d="M312,344a8,8,0,0,0,0-16h-8a8,8,0,0,0,0,16Z"/><path d="M352,8H64a8,8,0,0,0-8,8V496a8,8,0,0,0,8,8H352a8,8,0,0,0,8-8V16A8,8,0,0,0,352,8Zm-8,16V456H104V24ZM72,24H88V456H72ZM344,488H72V472H344Z"/><path d="M272,432a8,8,0,0,0,8,8h48a8,8,0,0,0,0-16H280A8,8,0,0,0,272,432Z"/><path d="M256,424h-8a8,8,0,0,0,0,16h8a8,8,0,0,0,0-16Z"/><path d="M416,8H400a24.027,24.027,0,0,0-24,24V448a7.994,7.994,0,0,0,.845,3.578l24,48a8,8,0,0,0,14.31,0l24-48A7.994,7.994,0,0,0,440,448V32A24.027,24.027,0,0,0,416,8Zm8,438.111L423.056,448H392.944L392,446.111V440h32ZM424,80H392V72h32ZM392,96h32V424H392Zm0-64a8.009,8.009,0,0,1,8-8h16a8.009,8.009,0,0,1,8,8V56H392Zm16,446.111L400.944,464h14.112Z"/><path d="M408,112a8,8,0,0,0-8,8V320a8,8,0,0,0,16,0V120A8,8,0,0,0,408,112Z"/><path d="M408,336a8,8,0,0,0-8,8v8a8,8,0,0,0,16,0v-8A8,8,0,0,0,408,336Z"/></g></svg>
