<svg id="Capa_1" enable-background="new 0 0 512.084 512.084" height="512" viewBox="0 0 512.084 512.084" width="512" xmlns="http://www.w3.org/2000/svg"><path d="m233.972 478.226h44.141c4.143 0 7.5-3.357 7.5-7.5s-3.357-7.5-7.5-7.5h-44.141c-4.143 0-7.5 3.357-7.5 7.5s3.357 7.5 7.5 7.5z"/><path d="m235.477 47.854c4.143 0 7.5-3.357 7.5-7.5s-3.357-7.5-7.5-7.5h-20.565c-4.143 0-7.5 3.357-7.5 7.5s3.357 7.5 7.5 7.5z"/><path d="m297.173 47.854c4.143 0 7.5-3.357 7.5-7.5s-3.357-7.5-7.5-7.5h-37.967c-4.143 0-7.5 3.357-7.5 7.5s3.357 7.5 7.5 7.5z"/><path d="m397.583 0h-208.041c-4.143 0-7.5 3.357-7.5 7.5s3.357 7.5 7.5 7.5h208.041c4.136 0 7.5 3.364 7.5 7.5v39.042h-298.082v-39.042c0-4.136 3.364-7.5 7.5-7.5h41.601c4.143 0 7.5-3.357 7.5-7.5s-3.357-7.5-7.5-7.5h-41.601c-12.406 0-22.5 10.094-22.5 22.5v422.842 44.242c0 12.406 10.094 22.5 22.5 22.5h283.082c12.406 0 22.5-10.094 22.5-22.5v-44.242-422.842c0-12.406-10.094-22.5-22.5-22.5zm7.5 489.584c0 4.136-3.364 7.5-7.5 7.5h-283.082c-4.136 0-7.5-3.364-7.5-7.5v-36.742h298.082zm0-51.742h-298.082v-361.3h298.082z"/><path d="m142.293 236.13h227.498c9.715 0 17.618-7.903 17.618-17.618v-48.803c0-4.143-3.357-7.5-7.5-7.5s-7.5 3.357-7.5 7.5v48.803c0 1.443-1.175 2.618-2.618 2.618h-9.89l-46.148-52.007c-2.656-2.995-6.475-4.781-10.476-4.901-4.038-.1-7.92 1.434-10.75 4.264l-21.389 21.379-30.842-34.757c-2.656-2.995-6.475-4.781-10.476-4.901-4.024-.104-7.919 1.434-10.75 4.264l-66.692 66.66h-10.086c-1.443 0-2.618-1.175-2.618-2.618v-102.542c0-1.443 1.175-2.618 2.618-2.618h227.498c1.443 0 2.618 1.175 2.618 2.618v19.071c0 4.143 3.357 7.5 7.5 7.5s7.5-3.357 7.5-7.5v-19.071c0-9.715-7.903-17.618-17.618-17.618h-227.497c-9.715 0-17.618 7.903-17.618 17.618v102.541c0 9.715 7.903 17.618 17.618 17.618zm87.072-70.742 40.328 45.447c2.748 3.1 7.489 3.383 10.587.632 3.023-2.682 3.358-7.254.82-10.352l21.722-21.712 37.026 41.727h-166.251z"/><path d="m151.425 311.984c2.938 1.705 6.23 2.558 9.523 2.558s6.586-.853 9.522-2.558c8.04-4.666 15.749-11.884 21.709-20.323 4.621-6.546 6.238-15.7 4.12-23.321-1.72-6.186-5.755-10.948-11.362-13.411-8.36-3.672-17.558-2.007-23.989 4.041-6.432-6.048-15.627-7.713-23.989-4.041-5.607 2.463-9.643 7.226-11.362 13.411-2.118 7.622-.501 16.776 4.121 23.322 5.958 8.438 13.667 15.655 21.707 20.322zm-11.376-39.627c.682-2.453 2.005-3.283 2.941-3.694 1.003-.44 2.017-.655 3.003-.655 2.168 0 4.2 1.04 5.672 3.004 1.572 2.099 2.405 3.929 2.405 3.929 1.184 2.724 3.873 4.471 6.843 4.488 2.962-.024 5.68-1.74 6.896-4.448.009-.019.842-1.857 2.423-3.968 2.142-2.857 5.465-3.76 8.675-2.35.937.411 2.26 1.241 2.941 3.694.916 3.297.108 7.777-1.922 10.652-4.74 6.713-10.772 12.396-16.985 16.002-1.211.703-2.774.703-3.985 0-6.213-3.606-12.244-9.289-16.983-16.002-2.032-2.874-2.84-7.355-1.924-10.652z"/><path d="m216.679 338.506c0-4.143-3.357-7.5-7.5-7.5h-68.889c-4.143 0-7.5 3.357-7.5 7.5s3.357 7.5 7.5 7.5h68.889c4.142 0 7.5-3.358 7.5-7.5z"/><path d="m278.067 346.006c4.143 0 7.5-3.357 7.5-7.5s-3.357-7.5-7.5-7.5h-26.671c-4.143 0-7.5 3.357-7.5 7.5s3.357 7.5 7.5 7.5z"/><path d="m379.902 331.006h-62.898c-4.143 0-7.5 3.357-7.5 7.5s3.357 7.5 7.5 7.5h62.898c4.143 0 7.5-3.357 7.5-7.5s-3.357-7.5-7.5-7.5z"/><path d="m140.29 364.009c-4.143 0-7.5 3.357-7.5 7.5s3.357 7.5 7.5 7.5h43.922c4.143 0 7.5-3.357 7.5-7.5s-3.357-7.5-7.5-7.5z"/><path d="m302.041 371.509c0-4.143-3.357-7.5-7.5-7.5h-79.629c-4.143 0-7.5 3.357-7.5 7.5s3.357 7.5 7.5 7.5h79.629c4.143 0 7.5-3.358 7.5-7.5z"/><path d="m379.902 364.009h-48.459c-4.143 0-7.5 3.357-7.5 7.5s3.357 7.5 7.5 7.5h48.459c4.143 0 7.5-3.357 7.5-7.5s-3.357-7.5-7.5-7.5z"/><path d="m195.941 394.372h-55.651c-4.143 0-7.5 3.357-7.5 7.5s3.357 7.5 7.5 7.5h55.651c4.143 0 7.5-3.357 7.5-7.5s-3.357-7.5-7.5-7.5z"/><path d="m325.797 394.372h-94.3c-4.143 0-7.5 3.357-7.5 7.5s3.357 7.5 7.5 7.5h94.3c4.143 0 7.5-3.357 7.5-7.5s-3.358-7.5-7.5-7.5z"/><path d="m379.902 394.372h-21.642c-4.143 0-7.5 3.357-7.5 7.5s3.357 7.5 7.5 7.5h21.642c4.143 0 7.5-3.357 7.5-7.5s-3.357-7.5-7.5-7.5z"/></svg>