<?xml version="1.0" encoding="UTF-8"?>
<!DOCTYPE svg PUBLIC "-//W3C//DTD SVG 1.1//EN" "http://www.w3.org/Graphics/SVG/1.1/DTD/svg11.dtd">
<!-- Creator: CorelDRAW 2019 (64-Bit) -->
<svg xmlns="http://www.w3.org/2000/svg" xml:space="preserve" width="10mm" height="10mm" version="1.1" style="shape-rendering:geometricPrecision; text-rendering:geometricPrecision; image-rendering:optimizeQuality; fill-rule:evenodd; clip-rule:evenodd"
viewBox="0 0 1000 1000"
 xmlns:xlink="http://www.w3.org/1999/xlink"
 xmlns:xodm="http://www.corel.com/coreldraw/odm/2003">
 <defs>
  <style type="text/css">
   <![CDATA[
    .fil1 {fill:#E73558;fill-rule:nonzero}
    .fil0 {fill:#5F3638;fill-rule:nonzero}
   ]]>
  </style>
 </defs>
 <g id="Слой_x0020_1">
  <metadata id="CorelCorpID_0Corel-Layer"/>
  <g id="_2784478550096">
   <path class="fil0" d="M492 107.18c221.36,0 400.82,179.46 400.82,400.82 0,221.36 -179.46,400.82 -400.82,400.82 -221.36,0 -400.82,-179.46 -400.82,-400.82 0,-221.36 179.46,-400.82 400.82,-400.82z"/>
   <path class="fil0" d="M456.94 907.28c11.56,1 23.24,1.54 35.06,1.54 221.36,0 400.82,-179.46 400.82,-400.82 0,-13.1 -0.66,-26.08 -1.88,-38.86l-182.28 -182.28 -84.12 0 0 158.04c-25.94,-29.52 -56.68,-44.3 -92.18,-44.3 -16.84,0 -32.4,2.66 -46.7,7.96l-121.72 -121.7 -88.6 0 0 438.82 181.6 181.6z"/>
   <polygon class="fil1" points="275.34,725.68 363.94,725.68 363.94,286.86 275.34,286.86 "/>
   <path class="fil1" d="M484.16 559.86c0,33.92 4.68,58.46 14.06,73.62 13.58,21.96 32.54,32.94 56.88,32.94 19.36,0 35.82,-8.24 49.38,-24.7 13.58,-16.46 20.36,-41.06 20.36,-73.78 0,-36.52 -6.58,-62.82 -19.76,-78.88 -13.16,-16.06 -30.02,-24.1 -50.58,-24.1 -19.96,0 -36.66,7.94 -50.14,23.8 -13.46,15.86 -20.2,39.56 -20.2,71.1zm224.5 165.82l-78.12 0 0 -46.68c-26.26,36.72 -63.98,53.86 -99.38,53.86 -36.52,0 -67.8,-14.7 -93.86,-44.14 -26.02,-29.44 -39.04,-70.5 -39.04,-123.18 0,-53.88 12.66,-94.84 38,-122.88 25.34,-28.02 57.38,-42.06 96.1,-42.06 35.5,0 66.24,14.78 92.18,44.3l0 -158.04 84.12 0 0 438.82z"/>
  </g>
 </g>
</svg>
