<?xml version="1.0" encoding="UTF-8"?>
<!DOCTYPE svg PUBLIC "-//W3C//DTD SVG 1.1//EN" "http://www.w3.org/Graphics/SVG/1.1/DTD/svg11.dtd">
<!-- Creator: CorelDRAW 2019 (64-Bit) -->
<svg xmlns="http://www.w3.org/2000/svg" xml:space="preserve" width="10mm" height="10mm" version="1.1" style="shape-rendering:geometricPrecision; text-rendering:geometricPrecision; image-rendering:optimizeQuality; fill-rule:evenodd; clip-rule:evenodd"
viewBox="0 0 1000 1000"
 xmlns:xlink="http://www.w3.org/1999/xlink"
 xmlns:xodm="http://www.corel.com/coreldraw/odm/2003">
 <defs>
  <style type="text/css">
   <![CDATA[
    .fil1 {fill:#12B6C8;fill-rule:nonzero}
    .fil0 {fill:#38478E;fill-rule:nonzero}
   ]]>
  </style>
 </defs>
 <g id="Слой_x0020_1">
  <metadata id="CorelCorpID_0Corel-Layer"/>
  <g id="_2783121398640">
   <path class="fil0" d="M492 107.18c221.36,0 400.82,179.46 400.82,400.82 0,221.38 -179.46,400.82 -400.82,400.82 -221.36,0 -400.82,-179.44 -400.82,-400.82 0,-221.36 179.46,-400.82 400.82,-400.82z"/>
   <path class="fil0" d="M626.68 421.24c-32,0 -56.52,5.84 -73.62,17.52l-77.28 -76.26 0 0c-12.04,-12.78 -26.28,-21.34 -42.8,-25.66 -23.74,-6.38 -80.48,-5.2 -194.96,-5.2l0 345.62 230.88 230.88c7.64,0.44 15.34,0.68 23.1,0.68 185.48,0 341.5,-125.98 387.22,-297.06l-163.46 -163.46 -0.02 0c-20.7,-20.9 -51.62,-27.06 -89.06,-27.06z"/>
   <path class="fil1" d="M307.8 390.12l0 98.06c70.72,0 98.28,2.3 115.16,-22.38 11.22,-16.4 10.98,-42.34 -3.18,-58 -17.68,-19.56 -37,-17.68 -111.98,-17.68zm-69.78 287.14l0 -345.62c114.48,0 171.22,-1.18 194.96,5.2 19.82,5.18 36.4,16.46 49.76,33.82 25.88,33.66 24.74,90.32 8.48,120.82 -14.7,27.6 -39.5,44.78 -65.54,50.46 -30.66,6.08 -76.06,4.96 -117.88,4.96l0 130.36 -69.78 0 0 0z"/>
   <path class="fil1" d="M512.12 605.84l66.48 -10.14c6.18,28.18 25.2,39.36 53.52,39.36 21.6,0 47.38,-5.42 47.38,-27.1 0,-14.6 -12.2,-17.8 -26.88,-21.22 -53.44,-11.8 -87.3,-22.56 -101.6,-32.3 -19.82,-13.52 -29.72,-32.3 -29.72,-56.34 0,-21.7 8.58,-39.92 25.7,-54.7 17.14,-14.78 43.7,-22.16 79.68,-22.16 54.72,0 95.52,13.14 110.82,66.24l-62.48 11.56c-2.68,-9.74 -7.74,-17.22 -15.2,-22.4 -17.08,-11.86 -56.24,-9 -69.44,-0.48 -9.42,6.48 -10.48,18.32 -0.94,25.46 19.18,14.14 101.14,19.3 135.8,48.1 13.82,11.8 20.74,28.22 20.74,49.28 0,22.94 -9.58,42.66 -28.76,59.18 -19.18,16.5 -47.54,24.74 -85.1,24.74 -34.12,0 -61.12,-6.9 -81,-20.74 -19.88,-13.84 -32.88,-32.62 -39,-56.34z"/>
  </g>
 </g>
</svg>
