<?xml version="1.0" encoding="UTF-8"?>
<!DOCTYPE svg PUBLIC "-//W3C//DTD SVG 1.1//EN" "http://www.w3.org/Graphics/SVG/1.1/DTD/svg11.dtd">
<!-- Creator: CorelDRAW 2019 (64-Bit) -->
<svg xmlns="http://www.w3.org/2000/svg" xml:space="preserve" width="10mm" height="10mm" version="1.1" style="shape-rendering:geometricPrecision; text-rendering:geometricPrecision; image-rendering:optimizeQuality; fill-rule:evenodd; clip-rule:evenodd"
viewBox="0 0 1000 1000"
 xmlns:xlink="http://www.w3.org/1999/xlink"
 xmlns:xodm="http://www.corel.com/coreldraw/odm/2003">
 <defs>
  <style type="text/css">
   <![CDATA[
    .fil1 {fill:#EF7B29;fill-rule:nonzero}
    .fil0 {fill:#6D3D2A;fill-rule:nonzero}
   ]]>
  </style>
 </defs>
 <g id="Слой_x0020_1">
  <metadata id="CorelCorpID_0Corel-Layer"/>
  <g id="_2782987488784">
   <path class="fil0" d="M492 107.18c221.36,0 400.82,179.46 400.82,400.82 0,221.38 -179.46,400.82 -400.82,400.82 -221.36,0 -400.82,-179.44 -400.82,-400.82 0,-221.36 179.46,-400.82 400.82,-400.82z"/>
   <path class="fil0" d="M891.6 476.62l-162.2 -162.2 -73.92 0 0 68.42 37.88 37.88 -37.88 0 0 61.98 -168.3 -168.28 -82.34 0 -150.24 385.72 207.56 207.58c9.86,0.72 19.8,1.1 29.84,1.1 221.36,0 400.82,-179.44 400.82,-400.82 0,-10.56 -0.42,-21.02 -1.22,-31.38z"/>
   <path class="fil1" d="M498.24 547.54l-53.16 -143.14 -52.08 143.14 105.24 0zm143.4 152.6l-84.72 0 -33.68 -87.6 -154.2 0 -31.82 87.6 -82.62 0 150.24 -385.72 82.34 0 154.46 385.72z"/>
   <path class="fil1" d="M655.48 700.14l0 -279.42 73.92 0 0 279.42 -73.92 0zm0 -317.3l0 -68.42 73.92 0 0 68.42 -73.92 0z"/>
  </g>
 </g>
</svg>
