<?xml version="1.0" encoding="UTF-8"?>
<!DOCTYPE svg PUBLIC "-//W3C//DTD SVG 1.1//EN" "http://www.w3.org/Graphics/SVG/1.1/DTD/svg11.dtd">
<!-- Creator: CorelDRAW 2019 (64-Bit) -->
<svg xmlns="http://www.w3.org/2000/svg" xml:space="preserve" width="10mm" height="10mm" version="1.1" style="shape-rendering:geometricPrecision; text-rendering:geometricPrecision; image-rendering:optimizeQuality; fill-rule:evenodd; clip-rule:evenodd"
viewBox="0 0 1000 1000"
 xmlns:xlink="http://www.w3.org/1999/xlink"
 xmlns:xodm="http://www.corel.com/coreldraw/odm/2003">
 <defs>
  <style type="text/css">
   <![CDATA[
    .fil0 {fill:#51D002}
   ]]>
  </style>
 </defs>
 <g id="Слой_x0020_1">
  <metadata id="CorelCorpID_0Corel-Layer"/>
  <g id="_2784497700128">
   <path class="fil0" d="M490.44 591.56c1.38,-2.88 36.38,-35.98 39.88,-39.34 4.48,-4.28 9.24,-8.4 13.4,-12.88l53.76 -51.82 84.72 282.76c-5.88,-0.62 -151.28,-49.72 -168.2,-55.42 -2.32,-0.78 -22.34,-6.78 -24.34,-8.64 -2.2,0.2 -85.96,-27.5 -87.9,-29.3 14.66,-13.4 29.58,-28.8 44.08,-42.76 7.48,-7.16 14.6,-14.22 22.24,-21.56l16.48 -16.04c1.1,-1.08 1.8,-1.7 2.9,-2.76l2.98 -2.24zm1.2 -210.72c1.82,0.98 1.82,1.2 3.26,2.74 20.44,22 43.8,44.72 64.96,67.04 4.28,4.52 20.32,20.38 22.64,23.64 -1.02,1.82 -87.64,86.54 -91.06,88.22 -0.86,2.3 -24.2,24.08 -25.58,25.38l-26.28 25.64c-9.92,10.44 -28.04,26.64 -39.18,37.78 -3.42,3.44 -10.82,11.62 -13.72,12.72 -2.92,-2.26 -5.82,-5.8 -8.5,-8.56 -2.88,-3 -5.72,-5.68 -8.72,-8.78l-34.38 -35.7c-6.3,-6.64 -11.6,-11.8 -17.28,-17.76 -11.52,-12.06 -22.74,-23.16 -34.26,-35.18 -33.54,-35 -70.02,-71.62 -103.2,-106.4 -1.7,-1.8 -66.2,-68.94 -68.92,-70.6 -20.76,60.3 -26.66,138.64 -12.58,205.84 30.94,147.72 133.28,262.18 276.58,306.6 36.02,11.18 60.54,14.12 96.38,16.78l3.48 0.74 33.6 0 22.3 -2.06c6.8,-0.58 14.22,-1.58 21.02,-2.64 159.76,-25.06 285.64,-139.94 327.44,-295.72 6.6,-24.56 10.72,-51.72 12.4,-77.54 0.12,-1.88 0.02,-4.14 0.8,-5.78l0 -38.4c-1.4,-2.96 -2.28,-24.08 -2.98,-29.66 -1.26,-9.8 -2.76,-19.34 -4.48,-28.78 -9.02,-49.08 -30.6,-101.1 -56.42,-140.64 -74.06,-113.42 -196.84,-186.34 -342.18,-184.7 -64.7,0.74 -127.94,17.52 -183.16,47.14 -4.74,2.54 -18.06,9.58 -20.82,12.36 0.9,2.04 46.24,48.1 52.14,54.24l130.88 135.04c1.72,1.8 25.06,24.8 25.82,27z"/>
   <path class="fil0" d="M490.76 497.84c2.72,-5.24 12.36,-11.08 15.54,-16.06 -1.3,-2.58 -5.78,-6.38 -7.86,-8.54 -2.4,-2.52 -6.44,-5.78 -7.8,-8.74 -1.82,-0.82 -2.3,-1.94 -4.12,-3.74 -1.46,-1.46 -2.78,-2.56 -4.14,-3.98l-23.98 -24.82c-26.5,-27.66 -54.16,-55.16 -80.14,-82.54 -5.44,-5.72 -10.4,-11.34 -16.28,-16.88l-128.58 -132.18c-5.52,3.26 -38,34.9 -40.72,39.9 1.58,2.68 76.68,79.5 84.84,87.9 39.7,41.02 80,81.62 119.26,122.88 3.32,3.5 66.54,69.18 68.74,70.3 2.34,-1.28 10.14,-9.56 12.62,-11.92 2.92,-2.76 9.8,-10.26 12.62,-11.58z"/>
  </g>
 </g>
</svg>
