<svg id="Capa_1" enable-background="new 0 0 512 512" height="512" viewBox="0 0 512 512" width="512" xmlns="http://www.w3.org/2000/svg"><g><path d="m216.285 129.659c.34 3.827 3.55 6.828 7.466 6.828 4.143 0 7.5-3.357 7.5-7.5v-78.685c0-4.143-3.357-7.5-7.5-7.5-3.916 0-7.126 3.001-7.466 6.828l-34.145 11.525h-19.53c-12.09 0-21.925 9.836-21.925 21.926v13.126c0 10.27 7.099 18.91 16.646 21.279l8.439 20.369c1.58 3.815 5.96 5.649 9.799 4.059 3.827-1.585 5.645-5.973 4.059-9.799l-5.793-13.982h8.304zm-.034-15.844-25.379-8.566v-31.21l25.379-8.566zm-60.565-30.734c0-3.819 3.106-6.926 6.925-6.926h13.262v26.978h-13.169c-.031 0-.062 0-.093 0-3.818 0-6.924-3.107-6.924-6.926v-13.126z"/><path d="m482.308 330.866c0-4.143-3.357-7.5-7.5-7.5h-45.259c-4.143 0-7.5 3.357-7.5 7.5s3.357 7.5 7.5 7.5h45.259c4.142 0 7.5-3.357 7.5-7.5z"/><path d="m429.549 351.951c-4.143 0-7.5 3.357-7.5 7.5s3.357 7.5 7.5 7.5h35.259c4.143 0 7.5-3.357 7.5-7.5s-3.357-7.5-7.5-7.5z"/><path d="m282.064 76.155h58.877c4.143 0 7.5-3.357 7.5-7.5s-3.357-7.5-7.5-7.5h-58.877c-4.143 0-7.5 3.357-7.5 7.5s3.358 7.5 7.5 7.5z"/><path d="m282.064 110.552h118.877c4.143 0 7.5-3.357 7.5-7.5s-3.357-7.5-7.5-7.5h-118.877c-4.143 0-7.5 3.357-7.5 7.5s3.358 7.5 7.5 7.5z"/><path d="m203.562 278.07c4.143 0 7.5-3.357 7.5-7.5s-3.357-7.5-7.5-7.5h-40.952c-4.143 0-7.5 3.357-7.5 7.5s3.357 7.5 7.5 7.5z"/><path d="m176.764 364.27c2.963 3.994 7.441 10.031 16.409 10.031 8.969 0 13.447-6.037 16.411-10.031 2.598-3.502 3.229-3.969 4.363-3.969s1.767.467 4.364 3.969c2.964 3.995 7.442 10.031 16.41 10.031 4.143 0 7.5-3.357 7.5-7.5s-3.357-7.5-7.5-7.5c-1.134 0-1.766-.467-4.363-3.969-2.964-3.994-7.443-10.031-16.411-10.031s-13.446 6.036-16.41 10.031c-2.598 3.502-3.23 3.969-4.364 3.969-1.133 0-1.765-.467-4.362-3.969-2.963-3.994-7.441-10.031-16.409-10.031-4.143 0-7.5 3.357-7.5 7.5s3.357 7.5 7.5 7.5c1.132 0 1.764.467 4.362 3.969z"/><path d="m160.155 393.767c0 4.143 3.357 7.5 7.5 7.5h73.23c4.143 0 7.5-3.357 7.5-7.5s-3.357-7.5-7.5-7.5h-73.23c-4.142 0-7.5 3.357-7.5 7.5z"/><path d="m504.5 336.123c4.143 0 7.5-3.357 7.5-7.5v-29.424c0-8.378-6.815-15.193-15.193-15.193h-46.64v-267.063c0-9.342-7.601-16.943-16.943-16.943h-162.23c-4.143 0-7.5 3.357-7.5 7.5s3.357 7.5 7.5 7.5h162.229c1.071 0 1.943.872 1.943 1.943v267.062h-90.336c-8.378 0-15.193 6.815-15.193 15.193v91.919c0 8.378 6.815 15.193 15.193 15.193h90.337v28.425c0 1.071-.872 1.943-1.943 1.943h-314.447c-1.071 0-1.943-.872-1.943-1.943v-110.868h115.23c8.999 0 16.32-7.321 16.32-16.32v-124.308c0-8.999-7.321-16.32-16.32-16.32h-115.23v-149.976c0-1.071.872-1.943 1.943-1.943h122.229c4.143 0 7.5-3.357 7.5-7.5s-3.357-7.5-7.5-7.5h-122.229c-9.343 0-16.943 7.601-16.943 16.943v149.976h-85.513c-9 0-16.321 7.321-16.321 16.32v124.308c0 8.999 7.321 16.32 16.321 16.32h16.812c4.143 0 7.5-3.357 7.5-7.5s-3.357-7.5-7.5-7.5h-16.812c-.729 0-1.321-.593-1.321-1.32v-124.308c0-.221.068-.42.165-.604l97.823 64.363c3.403 2.239 7.305 3.359 11.205 3.359 3.901 0 7.803-1.12 11.205-3.359l97.823-64.363c.096.183.165.382.165.604v124.308c0 .728-.592 1.32-1.32 1.32h-168.946c-4.143 0-7.5 3.357-7.5 7.5s3.357 7.5 7.5 7.5h38.714v110.869c0 9.343 7.601 16.943 16.943 16.943h314.446c9.343 0 16.943-7.601 16.943-16.943v-28.425h46.64c8.378 0 15.193-6.815 15.193-15.193v-32.508c0-4.143-3.357-7.5-7.5-7.5s-7.5 3.357-7.5 7.5v32.508c0 .106-.087.193-.193.193h-151.976c-.106 0-.193-.087-.193-.193v-91.919c0-.106.087-.193.193-.193h151.977c.106 0 .193.087.193.193v29.424c0 4.143 3.357 7.5 7.5 7.5zm-377.348-101.655c-1.797 1.183-4.122 1.184-5.921 0l-79.866-52.549h165.655z"/><path d="m406.855 467.503h-12.517c-.592-3.551-3.67-6.26-7.389-6.26s-6.797 2.709-7.389 6.26h-236.623c-9.751 0-19.127 2.956-27.114 8.549l-10.79 7.556c-2.005 1.403-3.198 3.696-3.198 6.144s1.193 4.74 3.198 6.144l10.79 7.556c7.988 5.594 17.364 8.55 27.114 8.55h263.919c12.269 0 22.249-9.98 22.249-22.249-.001-12.27-9.981-22.25-22.25-22.25zm0 29.497h-263.918c-6.656 0-13.057-2.019-18.511-5.837l-2.017-1.412 2.017-1.412c5.453-3.817 11.854-5.836 18.511-5.836h263.919c3.997 0 7.249 3.251 7.249 7.248s-3.252 7.249-7.25 7.249z"/></g></svg>